<svg width="33" height="36" viewBox="0 0 33 36" fill="none" xmlns="http://www.w3.org/2000/svg">
<path d="M18.0359 4.7262C18.3826 3.38356 19.1659 2.19433 20.2626 1.34572C21.3593 0.497107 22.7071 0.0373072 24.0937 0.0386994H24.25C24.5815 0.0386994 24.8994 0.170396 25.1339 0.404816C25.3683 0.639236 25.5 0.957179 25.5 1.2887C25.5 1.62022 25.3683 1.93816 25.1339 2.17258C24.8994 2.407 24.5815 2.5387 24.25 2.5387H24.0937C23.2623 2.53863 22.4545 2.81486 21.7971 3.32396C21.1398 3.83307 20.6703 4.54618 20.4625 5.3512C20.3796 5.67236 20.1725 5.94744 19.8868 6.11593C19.6011 6.28442 19.2602 6.33252 18.939 6.24964C18.6179 6.16676 18.3428 5.95969 18.1743 5.67399C18.0058 5.38829 17.9577 5.04736 18.0406 4.7262H18.0359ZM32.8906 26.5371C32.7969 26.3229 32.6454 26.139 32.4531 26.0059C29.8015 24.184 29.25 21.0762 29.25 18.7887C29.25 16.0278 31.3547 13.6231 32.6094 12.434C32.7328 12.3172 32.8311 12.1764 32.8982 12.0204C32.9654 11.8643 33.0001 11.6961 33.0001 11.5262C33.0001 11.3563 32.9654 11.1881 32.8982 11.032C32.8311 10.876 32.7328 10.7352 32.6094 10.6184C30.6281 8.74807 27.3469 7.5387 24.25 7.5387C22.0254 7.54069 19.851 8.20007 18 9.43401C15.8408 7.98614 13.2446 7.33589 10.6578 7.59511C8.07108 7.85432 5.6555 9.0068 3.82655 10.8543C2.73317 11.9706 1.87527 13.2951 1.30382 14.7494C0.732361 16.2037 0.459005 17.758 0.499983 19.32C0.561321 21.9564 1.14757 24.5542 2.22445 26.9615C3.30133 29.3688 4.84725 31.5373 6.77186 33.3403C7.93092 34.4354 9.46636 35.0434 11.0609 35.0387H24.7609C25.6134 35.0403 26.4571 34.8668 27.2398 34.529C28.0225 34.1911 28.7274 33.6961 29.3109 33.0746C30.3918 31.9113 31.3269 30.6206 32.0953 29.2309C33.1922 27.2262 33.0515 26.9137 32.8906 26.5371Z" fill="#EB3850"/>
</svg>
