<svg width="191" height="61" viewBox="0 0 191 61" fill="none" xmlns="http://www.w3.org/2000/svg">
<rect y="0.0334473" width="191" height="60" rx="5" fill="#333333"/>
<g clip-path="url(#clip0_270506_7782)">
<path d="M44.0359 14.721C44.3826 13.3783 45.1659 12.1891 46.2626 11.3405C47.3593 10.4919 48.7071 10.0321 50.0937 10.0335H50.25C50.5815 10.0335 50.8994 10.1651 51.1339 10.3996C51.3683 10.634 51.5 10.9519 51.5 11.2835C51.5 11.615 51.3683 11.9329 51.1339 12.1673C50.8994 12.4018 50.5815 12.5335 50.25 12.5335H50.0937C49.2623 12.5334 48.4545 12.8096 47.7971 13.3187C47.1398 13.8278 46.6703 14.5409 46.4625 15.346C46.3796 15.6671 46.1725 15.9422 45.8868 16.1107C45.6011 16.2792 45.2602 16.3273 44.939 16.2444C44.6179 16.1615 44.3428 15.9544 44.1743 15.6687C44.0058 15.383 43.9577 15.0421 44.0406 14.721H44.0359ZM58.8906 36.5319C58.7969 36.3177 58.6454 36.1337 58.4531 36.0006C55.8015 34.1788 55.25 31.071 55.25 28.7835C55.25 26.0225 57.3547 23.6178 58.6094 22.4288C58.7328 22.3119 58.8311 22.1712 58.8982 22.0151C58.9654 21.859 59.0001 21.6909 59.0001 21.521C59.0001 21.351 58.9654 21.1829 58.8982 21.0268C58.8311 20.8707 58.7328 20.73 58.6094 20.6131C56.6281 18.7428 53.3469 17.5335 50.25 17.5335C48.0254 17.5354 45.851 18.1948 44 19.4288C41.8408 17.9809 39.2446 17.3306 36.6578 17.5899C34.0711 17.8491 31.6555 19.0016 29.8265 20.8491C28.7332 21.9653 27.8753 23.2899 27.3038 24.7442C26.7324 26.1984 26.459 27.7527 26.5 29.3147C26.5613 31.9512 27.1476 34.549 28.2244 36.9563C29.3013 39.3636 30.8473 41.5321 32.7719 43.335C33.9309 44.4301 35.4664 45.0381 37.0609 45.0335H50.7609C51.6134 45.0351 52.4571 44.8616 53.2398 44.5237C54.0225 44.1859 54.7274 43.6909 55.3109 43.0694C56.3918 41.9061 57.3269 40.6153 58.0953 39.2256C59.1922 37.2209 59.0515 36.9084 58.8906 36.5319Z" fill="white"/>
</g>
<path d="M77.288 13.8354H79.542C80.942 13.8354 82.006 14.2321 82.734 15.0254C83.4713 15.8188 83.84 16.9434 83.84 18.3994C83.84 19.8554 83.4713 20.9941 82.734 21.8154C82.006 22.6274 80.956 23.0334 79.584 23.0334H77.288V13.8354ZM79.458 22.1794C80.5593 22.1794 81.3853 21.8528 81.936 21.1994C82.496 20.5368 82.776 19.6034 82.776 18.3994C82.776 17.2141 82.496 16.2994 81.936 15.6554C81.3853 15.0114 80.5593 14.6894 79.458 14.6894H78.324V22.1794H79.458ZM88.3659 23.2014C87.8059 23.2014 87.2879 23.0614 86.8119 22.7814C86.3359 22.4921 85.9533 22.0814 85.6639 21.5494C85.3839 21.0081 85.2439 20.3734 85.2439 19.6454C85.2439 18.9174 85.3839 18.2828 85.6639 17.7414C85.9533 17.2001 86.3359 16.7894 86.8119 16.5094C87.2879 16.2201 87.8059 16.0754 88.3659 16.0754C88.9259 16.0754 89.4439 16.2201 89.9199 16.5094C90.3959 16.7894 90.7739 17.2001 91.0539 17.7414C91.3433 18.2828 91.4879 18.9174 91.4879 19.6454C91.4879 20.3734 91.3433 21.0081 91.0539 21.5494C90.7739 22.0814 90.3959 22.4921 89.9199 22.7814C89.4439 23.0614 88.9259 23.2014 88.3659 23.2014ZM88.3659 22.3474C88.7673 22.3474 89.1219 22.2354 89.4299 22.0114C89.7473 21.7874 89.9946 21.4701 90.1719 21.0594C90.3493 20.6488 90.4379 20.1774 90.4379 19.6454C90.4379 19.1134 90.3493 18.6421 90.1719 18.2314C89.9946 17.8208 89.7473 17.5034 89.4299 17.2794C89.1219 17.0461 88.7673 16.9294 88.3659 16.9294C87.9646 16.9294 87.6053 17.0461 87.2879 17.2794C86.9799 17.5034 86.7373 17.8208 86.5599 18.2314C86.3919 18.6421 86.3079 19.1134 86.3079 19.6454C86.3079 20.4574 86.4993 21.1108 86.8819 21.6054C87.2646 22.1001 87.7593 22.3474 88.3659 22.3474ZM92.4415 16.2434H93.4915L94.5555 20.2894L94.6815 20.8914C94.8121 21.4514 94.9055 21.8761 94.9615 22.1654H95.0175C95.1948 21.4374 95.3535 20.8121 95.4935 20.2894L96.5855 16.2434H97.6075L98.7135 20.2894L99.1895 22.1654H99.2455L99.6935 20.2894L100.729 16.2434H101.709L99.8615 23.0334H98.6015L97.5655 19.2394L97.2995 18.1334C97.2808 18.0588 97.2155 17.7788 97.1035 17.2934H97.0475C96.8421 18.2174 96.6788 18.8754 96.5575 19.2674L95.5495 23.0334H94.3595L92.4415 16.2434ZM103.235 16.2434H104.075L104.159 17.2514H104.201C104.574 16.8781 104.938 16.5888 105.293 16.3834C105.657 16.1781 106.054 16.0754 106.483 16.0754C107.192 16.0754 107.715 16.2994 108.051 16.7474C108.387 17.1861 108.555 17.8441 108.555 18.7214V23.0334H107.533V18.8474C107.533 18.1941 107.426 17.7181 107.211 17.4194C107.006 17.1208 106.665 16.9714 106.189 16.9714C105.853 16.9714 105.54 17.0601 105.251 17.2374C104.962 17.4054 104.626 17.6808 104.243 18.0634V23.0334H103.235V16.2434ZM111.942 23.2014C111.56 23.2014 111.28 23.0848 111.102 22.8514C110.925 22.6088 110.836 22.2541 110.836 21.7874V13.0374H111.844V21.8714C111.844 22.0301 111.872 22.1514 111.928 22.2354C111.994 22.3101 112.073 22.3474 112.166 22.3474C112.241 22.3474 112.325 22.3381 112.418 22.3194L112.558 23.1034C112.381 23.1688 112.176 23.2014 111.942 23.2014ZM116.926 23.2014C116.366 23.2014 115.848 23.0614 115.372 22.7814C114.896 22.4921 114.514 22.0814 114.224 21.5494C113.944 21.0081 113.804 20.3734 113.804 19.6454C113.804 18.9174 113.944 18.2828 114.224 17.7414C114.514 17.2001 114.896 16.7894 115.372 16.5094C115.848 16.2201 116.366 16.0754 116.926 16.0754C117.486 16.0754 118.004 16.2201 118.48 16.5094C118.956 16.7894 119.334 17.2001 119.614 17.7414C119.904 18.2828 120.048 18.9174 120.048 19.6454C120.048 20.3734 119.904 21.0081 119.614 21.5494C119.334 22.0814 118.956 22.4921 118.48 22.7814C118.004 23.0614 117.486 23.2014 116.926 23.2014ZM116.926 22.3474C117.328 22.3474 117.682 22.2354 117.99 22.0114C118.308 21.7874 118.555 21.4701 118.732 21.0594C118.91 20.6488 118.998 20.1774 118.998 19.6454C118.998 19.1134 118.91 18.6421 118.732 18.2314C118.555 17.8208 118.308 17.5034 117.99 17.2794C117.682 17.0461 117.328 16.9294 116.926 16.9294C116.525 16.9294 116.166 17.0461 115.848 17.2794C115.54 17.5034 115.298 17.8208 115.12 18.2314C114.952 18.6421 114.868 19.1134 114.868 19.6454C114.868 20.4574 115.06 21.1108 115.442 21.6054C115.825 22.1001 116.32 22.3474 116.926 22.3474ZM123.246 23.2014C122.667 23.2014 122.191 23.0334 121.818 22.6974C121.444 22.3614 121.258 21.8901 121.258 21.2834C121.258 20.5461 121.594 19.9814 122.266 19.5894C122.938 19.1881 124.011 18.9081 125.486 18.7494C125.486 18.2174 125.374 17.7834 125.15 17.4474C124.935 17.1021 124.562 16.9294 124.03 16.9294C123.386 16.9294 122.7 17.1768 121.972 17.6714L121.566 16.9714C122.462 16.3741 123.339 16.0754 124.198 16.0754C124.982 16.0754 125.56 16.3228 125.934 16.8174C126.307 17.3028 126.494 17.9748 126.494 18.8334V23.0334H125.654L125.57 22.2074H125.528C124.725 22.8701 123.964 23.2014 123.246 23.2014ZM123.512 22.3754C123.838 22.3754 124.156 22.3008 124.464 22.1514C124.781 21.9928 125.122 21.7501 125.486 21.4234V19.4354C124.319 19.5754 123.488 19.7901 122.994 20.0794C122.508 20.3688 122.266 20.7514 122.266 21.2274C122.266 21.6101 122.382 21.8994 122.616 22.0954C122.849 22.2821 123.148 22.3754 123.512 22.3754ZM131.001 23.2014C130.143 23.2014 129.461 22.8888 128.957 22.2634C128.463 21.6381 128.215 20.7654 128.215 19.6454C128.215 18.9361 128.351 18.3108 128.621 17.7694C128.892 17.2281 129.251 16.8128 129.699 16.5234C130.157 16.2248 130.647 16.0754 131.169 16.0754C131.533 16.0754 131.86 16.1408 132.149 16.2714C132.439 16.4021 132.756 16.6028 133.101 16.8734L133.059 15.6974V13.0374H134.067V23.0334H133.227L133.143 22.2074H133.101C132.812 22.5061 132.485 22.7488 132.121 22.9354C131.767 23.1128 131.393 23.2014 131.001 23.2014ZM131.225 22.3334C131.552 22.3334 131.86 22.2541 132.149 22.0954C132.448 21.9368 132.751 21.6941 133.059 21.3674V17.6854C132.761 17.4241 132.471 17.2374 132.191 17.1254C131.911 17.0041 131.622 16.9434 131.323 16.9434C130.941 16.9434 130.591 17.0601 130.273 17.2934C129.965 17.5268 129.718 17.8488 129.531 18.2594C129.354 18.6701 129.265 19.1321 129.265 19.6454C129.265 20.4854 129.433 21.1434 129.769 21.6194C130.115 22.0954 130.6 22.3334 131.225 22.3334ZM138.225 16.2434H139.275L140.619 20.2054L141.263 22.1934H141.319L141.963 20.2054L143.307 16.2434H144.315L141.879 23.0334H140.703L138.225 16.2434ZM145.672 16.2434H146.68V23.0334H145.672V16.2434ZM146.19 14.7874C145.985 14.7874 145.817 14.7221 145.686 14.5914C145.556 14.4608 145.49 14.2881 145.49 14.0734C145.49 13.8681 145.556 13.7048 145.686 13.5834C145.817 13.4528 145.985 13.3874 146.19 13.3874C146.396 13.3874 146.564 13.4528 146.694 13.5834C146.825 13.7048 146.89 13.8681 146.89 14.0734C146.89 14.2881 146.825 14.4608 146.694 14.5914C146.564 14.7221 146.396 14.7874 146.19 14.7874ZM150.603 23.2014C150.024 23.2014 149.548 23.0334 149.175 22.6974C148.802 22.3614 148.615 21.8901 148.615 21.2834C148.615 20.5461 148.951 19.9814 149.623 19.5894C150.295 19.1881 151.368 18.9081 152.843 18.7494C152.843 18.2174 152.731 17.7834 152.507 17.4474C152.292 17.1021 151.919 16.9294 151.387 16.9294C150.743 16.9294 150.057 17.1768 149.329 17.6714L148.923 16.9714C149.819 16.3741 150.696 16.0754 151.555 16.0754C152.339 16.0754 152.918 16.3228 153.291 16.8174C153.664 17.3028 153.851 17.9748 153.851 18.8334V23.0334H153.011L152.927 22.2074H152.885C152.082 22.8701 151.322 23.2014 150.603 23.2014ZM150.869 22.3754C151.196 22.3754 151.513 22.3008 151.821 22.1514C152.138 21.9928 152.479 21.7501 152.843 21.4234V19.4354C151.676 19.5754 150.846 19.7901 150.351 20.0794C149.866 20.3688 149.623 20.7514 149.623 21.2274C149.623 21.6101 149.74 21.8994 149.973 22.0954C150.206 22.2821 150.505 22.3754 150.869 22.3754Z" fill="white"/>
<path d="M82.912 43.0994H79.222L78.43 46.0334H75.91L79.654 34.2794H82.588L86.314 46.0334H83.704L82.912 43.0994ZM82.408 41.1914L82.084 39.9854C81.94 39.4574 81.724 38.6294 81.436 37.5014L81.094 36.1694H81.022C80.662 37.7174 80.344 38.9894 80.068 39.9854L79.744 41.1914H82.408ZM87.4545 37.1234H89.4525L89.6325 38.0234H89.7045C90.0765 37.6874 90.4845 37.4174 90.9285 37.2134C91.3845 37.0094 91.8345 36.9074 92.2785 36.9074C93.3585 36.9074 94.2105 37.3154 94.8345 38.1314C95.4585 38.9474 95.7705 40.0514 95.7705 41.4434C95.7705 42.4154 95.5965 43.2674 95.2485 43.9994C94.9005 44.7314 94.4385 45.2894 93.8625 45.6734C93.2865 46.0574 92.6685 46.2494 92.0085 46.2494C91.2525 46.2494 90.5265 45.9314 89.8305 45.2954L89.9025 46.7354V49.4174H87.4545V37.1234ZM91.4505 44.2334C91.9785 44.2334 92.4105 43.9994 92.7465 43.5314C93.0825 43.0634 93.2505 42.3734 93.2505 41.4614C93.2505 39.7694 92.6925 38.9234 91.5765 38.9234C91.0245 38.9234 90.4665 39.2114 89.9025 39.7874V43.6034C90.3825 44.0234 90.8985 44.2334 91.4505 44.2334ZM97.7201 37.1234H99.7181L99.8981 38.0234H99.9701C100.342 37.6874 100.75 37.4174 101.194 37.2134C101.65 37.0094 102.1 36.9074 102.544 36.9074C103.624 36.9074 104.476 37.3154 105.1 38.1314C105.724 38.9474 106.036 40.0514 106.036 41.4434C106.036 42.4154 105.862 43.2674 105.514 43.9994C105.166 44.7314 104.704 45.2894 104.128 45.6734C103.552 46.0574 102.934 46.2494 102.274 46.2494C101.518 46.2494 100.792 45.9314 100.096 45.2954L100.168 46.7354V49.4174H97.7201V37.1234ZM101.716 44.2334C102.244 44.2334 102.676 43.9994 103.012 43.5314C103.348 43.0634 103.516 42.3734 103.516 41.4614C103.516 39.7694 102.958 38.9234 101.842 38.9234C101.29 38.9234 100.732 39.2114 100.168 39.7874V43.6034C100.648 44.0234 101.164 44.2334 101.716 44.2334ZM110.272 46.2494C109.468 46.2494 108.886 46.0034 108.526 45.5114C108.166 45.0194 107.986 44.3234 107.986 43.4234V33.3794H110.434V43.5314C110.434 43.7834 110.482 43.9694 110.578 44.0894C110.674 44.1974 110.782 44.2514 110.902 44.2514C111.022 44.2514 111.13 44.2394 111.226 44.2154L111.532 46.0514C111.184 46.1834 110.764 46.2494 110.272 46.2494ZM120.428 41.1734C120.428 41.6294 120.392 42.0014 120.32 42.2894H114.812C114.932 42.9974 115.22 43.5194 115.676 43.8554C116.144 44.1914 116.684 44.3594 117.296 44.3594C117.932 44.3594 118.592 44.1614 119.276 43.7654L120.086 45.2594C119.642 45.5714 119.144 45.8174 118.592 45.9974C118.052 46.1654 117.512 46.2494 116.972 46.2494C116.132 46.2494 115.37 46.0634 114.686 45.6914C114.014 45.3194 113.48 44.7794 113.084 44.0714C112.7 43.3634 112.508 42.5354 112.508 41.5874C112.508 40.6514 112.7 39.8294 113.084 39.1214C113.48 38.4134 113.996 37.8674 114.632 37.4834C115.268 37.0994 115.946 36.9074 116.666 36.9074C117.878 36.9074 118.808 37.3034 119.456 38.0954C120.104 38.8754 120.428 39.9014 120.428 41.1734ZM118.322 40.6514C118.322 40.0754 118.19 39.6254 117.926 39.3014C117.662 38.9654 117.26 38.7974 116.72 38.7974C116.276 38.7974 115.88 38.9534 115.532 39.2654C115.196 39.5654 114.968 40.0274 114.848 40.6514H118.322ZM129.642 46.2494C128.85 46.2494 128.076 46.1054 127.32 45.8174C126.564 45.5174 125.898 45.0914 125.322 44.5394L126.744 42.8474C127.176 43.2314 127.65 43.5374 128.166 43.7654C128.694 43.9934 129.204 44.1074 129.696 44.1074C130.272 44.1074 130.71 43.9994 131.01 43.7834C131.322 43.5554 131.478 43.2434 131.478 42.8474C131.478 42.5954 131.406 42.3854 131.262 42.2174C131.13 42.0494 130.956 41.9114 130.74 41.8034C130.536 41.6954 130.2 41.5454 129.732 41.3534L128.184 40.6874C127.488 40.3994 126.918 39.9974 126.474 39.4814C126.03 38.9534 125.808 38.2934 125.808 37.5014C125.808 36.8654 125.982 36.2894 126.33 35.7734C126.69 35.2454 127.182 34.8314 127.806 34.5314C128.43 34.2194 129.132 34.0634 129.912 34.0634C130.596 34.0634 131.268 34.2014 131.928 34.4774C132.588 34.7414 133.158 35.1134 133.638 35.5934L132.396 37.1594C131.988 36.8354 131.586 36.5954 131.19 36.4394C130.794 36.2834 130.368 36.2054 129.912 36.2054C129.42 36.2054 129.03 36.3074 128.742 36.5114C128.454 36.7154 128.31 36.9974 128.31 37.3574C128.31 37.6094 128.382 37.8194 128.526 37.9874C128.682 38.1554 128.868 38.2934 129.084 38.4014C129.312 38.5094 129.66 38.6594 130.128 38.8514L131.64 39.4634C132.396 39.7754 132.978 40.1894 133.386 40.7054C133.794 41.2094 133.998 41.8574 133.998 42.6494C133.998 43.3094 133.824 43.9154 133.476 44.4674C133.128 45.0074 132.624 45.4394 131.964 45.7634C131.304 46.0874 130.53 46.2494 129.642 46.2494ZM138.65 46.2494C137.618 46.2494 136.862 45.9554 136.382 45.3674C135.902 44.7674 135.662 43.9334 135.662 42.8654V39.0674H134.42V37.2314L135.788 37.1234L136.076 34.7474H138.11V37.1234H140.288V39.0674H138.11V42.8474C138.11 43.8194 138.506 44.3054 139.298 44.3054C139.55 44.3054 139.844 44.2454 140.18 44.1254L140.576 45.9254C139.928 46.1414 139.286 46.2494 138.65 46.2494ZM145.533 46.2494C144.765 46.2494 144.051 46.0634 143.391 45.6914C142.743 45.3194 142.221 44.7794 141.825 44.0714C141.429 43.3634 141.231 42.5354 141.231 41.5874C141.231 40.6274 141.429 39.7934 141.825 39.0854C142.221 38.3774 142.743 37.8374 143.391 37.4654C144.051 37.0934 144.765 36.9074 145.533 36.9074C146.289 36.9074 146.997 37.0934 147.657 37.4654C148.317 37.8374 148.845 38.3834 149.241 39.1034C149.637 39.8114 149.835 40.6394 149.835 41.5874C149.835 42.5354 149.637 43.3634 149.241 44.0714C148.845 44.7794 148.317 45.3194 147.657 45.6914C146.997 46.0634 146.289 46.2494 145.533 46.2494ZM145.533 44.2514C146.097 44.2514 146.535 44.0174 146.847 43.5494C147.159 43.0694 147.315 42.4154 147.315 41.5874C147.315 40.7594 147.159 40.1054 146.847 39.6254C146.535 39.1454 146.097 38.9054 145.533 38.9054C144.957 38.9054 144.513 39.1454 144.201 39.6254C143.901 40.1054 143.751 40.7594 143.751 41.5874C143.751 42.4154 143.901 43.0694 144.201 43.5494C144.513 44.0174 144.957 44.2514 145.533 44.2514ZM151.72 37.1234H153.718L153.898 38.6894H153.97C154.282 38.1134 154.66 37.6754 155.104 37.3754C155.56 37.0634 156.022 36.9074 156.49 36.9074C156.91 36.9074 157.258 36.9674 157.534 37.0874L157.12 39.2114C157.084 39.1994 156.976 39.1754 156.796 39.1394C156.616 39.0914 156.412 39.0674 156.184 39.0674C155.8 39.0674 155.428 39.2054 155.068 39.4814C154.708 39.7574 154.408 40.1894 154.168 40.7774V46.0334H151.72V37.1234ZM165.92 41.1734C165.92 41.6294 165.884 42.0014 165.812 42.2894H160.304C160.424 42.9974 160.712 43.5194 161.168 43.8554C161.636 44.1914 162.176 44.3594 162.788 44.3594C163.424 44.3594 164.084 44.1614 164.768 43.7654L165.578 45.2594C165.134 45.5714 164.636 45.8174 164.084 45.9974C163.544 46.1654 163.004 46.2494 162.464 46.2494C161.624 46.2494 160.862 46.0634 160.178 45.6914C159.506 45.3194 158.972 44.7794 158.576 44.0714C158.192 43.3634 158 42.5354 158 41.5874C158 40.6514 158.192 39.8294 158.576 39.1214C158.972 38.4134 159.488 37.8674 160.124 37.4834C160.76 37.0994 161.438 36.9074 162.158 36.9074C163.37 36.9074 164.3 37.3034 164.948 38.0954C165.596 38.8754 165.92 39.9014 165.92 41.1734ZM163.814 40.6514C163.814 40.0754 163.682 39.6254 163.418 39.3014C163.154 38.9654 162.752 38.7974 162.212 38.7974C161.768 38.7974 161.372 38.9534 161.024 39.2654C160.688 39.5654 160.46 40.0274 160.34 40.6514H163.814Z" fill="white"/>
<defs>
<clipPath id="clip0_270506_7782">
<rect width="40" height="40" fill="white" transform="translate(24 10.0334)"/>
</clipPath>
</defs>
</svg>
