<svg width="512" height="306" viewBox="0 0 512 306" fill="none" xmlns="http://www.w3.org/2000/svg">
<rect width="291.093" height="170.035" rx="10" transform="matrix(0.944817 0.327599 -0.525072 0.851058 236.672 65.6309)" fill="url(#paint0_linear_270506_7883)"/>
<mask id="mask0_270506_7883" style="mask-type:alpha" maskUnits="userSpaceOnUse" x="147" y="65" width="365" height="241">
<rect width="290.785" height="170.035" transform="matrix(0.944817 0.327599 -0.525072 0.851058 236.672 65.6309)" fill="#ED713C"/>
</mask>
<g mask="url(#mask0_270506_7883)">
<path opacity="0.1" d="M287.072 267.364C277.847 282.315 251.168 295.415 204.064 297.978C158.786 300.441 101.832 292.422 44.5931 272.575C-12.6458 252.728 -57.6783 225.386 -84.4939 197.925C-112.391 169.357 -116.352 145.633 -107.128 130.683C-97.9039 115.732 -71.2243 102.632 -24.1202 100.069C21.1575 97.6058 78.1114 105.625 135.35 125.472C192.589 145.319 237.622 172.661 264.437 200.122C292.334 228.69 296.296 252.414 287.072 267.364Z" fill="#333333" stroke="#333333" stroke-width="36"/>
<path opacity="0.1" d="M793.369 233.356C780.061 254.927 748.401 271.545 700.818 277.166C653.981 282.698 596.273 276.738 539.488 257.049C482.703 237.36 439.274 208.253 414.569 177.914C389.47 147.092 385.861 118.245 399.169 96.6745C412.477 75.1043 444.137 58.4855 491.72 52.8649C538.556 47.3324 596.265 53.2929 653.05 72.9821C709.835 92.6713 753.263 121.778 777.969 152.117C803.068 182.938 806.677 211.786 793.369 233.356Z" fill="#333333" stroke="#333333" stroke-width="36"/>
</g>
<path d="M382.041 268.479C381.512 268.293 381.137 268.01 380.915 267.63C380.693 267.25 380.63 266.787 380.726 266.24C380.821 265.694 381.077 265.084 381.492 264.411C381.906 263.74 382.359 263.201 382.852 262.795C383.346 262.389 383.858 262.127 384.388 262.007C384.921 261.888 385.449 261.92 385.975 262.102C386.501 262.285 386.874 262.567 387.094 262.949C387.316 263.329 387.379 263.791 387.285 264.336C387.194 264.879 386.942 265.486 386.528 266.157C386.112 266.832 385.657 267.374 385.163 267.782C384.67 268.189 384.159 268.453 383.627 268.575C383.098 268.694 382.569 268.662 382.041 268.479ZM382.539 267.672C383.004 267.834 383.494 267.755 384.008 267.437C384.524 267.119 385.021 266.574 385.498 265.8C385.815 265.286 386.022 264.831 386.12 264.435C386.222 264.037 386.217 263.708 386.107 263.447C386 263.185 385.793 263 385.487 262.894C385.024 262.734 384.533 262.813 384.016 263.133C383.498 263.452 383 263.997 382.522 264.768C382.204 265.284 381.994 265.741 381.892 266.139C381.794 266.535 381.8 266.863 381.908 267.123C382.017 267.382 382.228 267.565 382.539 267.672ZM385.858 269.678L392.154 265.375L392.182 265.329L388.713 264.127L389.207 263.326L393.75 264.901L393.239 265.729L386.942 270.054L385.858 269.678ZM397.726 265.927L390.939 272.57L390.044 272.259L396.83 265.617L397.726 265.927ZM394.567 272.698L394.985 272.021L398.649 270.657C399.042 270.507 399.374 270.372 399.645 270.25C399.919 270.128 400.146 270 400.326 269.866C400.506 269.733 400.652 269.576 400.763 269.395C400.89 269.189 400.946 268.993 400.931 268.807C400.916 268.618 400.841 268.452 400.705 268.307C400.571 268.16 400.387 268.046 400.154 267.965C399.908 267.88 399.666 267.851 399.426 267.878C399.187 267.905 398.967 267.984 398.767 268.115C398.566 268.246 398.398 268.423 398.261 268.644L397.271 268.301C397.504 267.924 397.803 267.628 398.17 267.413C398.536 267.198 398.935 267.07 399.366 267.032C399.799 266.991 400.228 267.045 400.656 267.193C401.087 267.342 401.42 267.552 401.653 267.821C401.889 268.089 402.018 268.388 402.04 268.718C402.063 269.047 401.972 269.377 401.767 269.709C401.625 269.939 401.438 270.147 401.207 270.333C400.977 270.52 400.662 270.708 400.26 270.897C399.86 271.083 399.333 271.295 398.678 271.533L396.518 272.347L396.49 272.392L399.584 273.465L399.09 274.266L394.567 272.698ZM402.708 275.623C402.404 275.513 402.133 275.358 401.895 275.158C401.66 274.959 401.491 274.705 401.389 274.395C401.286 274.086 401.28 273.716 401.369 273.284C401.461 272.854 401.683 272.354 402.035 271.783C402.368 271.243 402.723 270.785 403.1 270.407C403.479 270.029 403.871 269.736 404.275 269.526C404.68 269.314 405.089 269.188 405.502 269.148C405.915 269.108 406.32 269.157 406.718 269.295C407.128 269.437 407.447 269.635 407.675 269.89C407.903 270.146 408.036 270.435 408.075 270.759C408.116 271.084 408.063 271.419 407.916 271.764L406.892 271.41C406.982 271.128 406.974 270.869 406.869 270.635C406.764 270.4 406.546 270.226 406.215 270.111C405.712 269.936 405.197 269.998 404.672 270.295C404.149 270.593 403.669 271.093 403.233 271.795L403.283 271.813C403.51 271.679 403.747 271.58 403.995 271.517C404.247 271.452 404.501 271.424 404.756 271.432C405.016 271.439 405.265 271.484 405.504 271.567C405.902 271.705 406.208 271.917 406.422 272.204C406.64 272.49 406.75 272.819 406.754 273.192C406.757 273.565 406.637 273.949 406.393 274.344C406.15 274.739 405.829 275.062 405.433 275.313C405.038 275.565 404.604 275.723 404.131 275.786C403.659 275.848 403.184 275.793 402.708 275.623ZM403.19 274.836C403.453 274.928 403.726 274.951 404.006 274.907C404.286 274.862 404.547 274.762 404.79 274.606C405.032 274.451 405.229 274.251 405.379 274.007C405.526 273.769 405.6 273.532 405.602 273.296C405.607 273.06 405.541 272.849 405.406 272.663C405.274 272.477 405.076 272.339 404.815 272.248C404.616 272.179 404.41 272.15 404.198 272.159C403.988 272.17 403.782 272.213 403.58 272.29C403.377 272.366 403.191 272.471 403.02 272.602C402.853 272.732 402.716 272.884 402.609 273.058C402.466 273.289 402.393 273.524 402.39 273.763C402.389 274.002 402.455 274.218 402.588 274.411C402.725 274.603 402.926 274.745 403.19 274.836Z" fill="white"/>
<path d="M220.448 210.259L220.784 209.715L224.432 208.265C224.859 208.095 225.219 207.944 225.511 207.81C225.803 207.674 226.044 207.535 226.233 207.392C226.424 207.249 226.579 207.082 226.696 206.893C226.83 206.675 226.888 206.467 226.87 206.267C226.854 206.068 226.773 205.891 226.628 205.735C226.482 205.58 226.285 205.459 226.037 205.373C225.773 205.281 225.512 205.251 225.254 205.281C225 205.31 224.765 205.394 224.55 205.532C224.336 205.671 224.157 205.858 224.011 206.094L223.22 205.82C223.443 205.457 223.733 205.171 224.087 204.961C224.442 204.751 224.827 204.625 225.241 204.583C225.657 204.542 226.066 204.59 226.466 204.729C226.869 204.869 227.179 205.069 227.395 205.33C227.611 205.591 227.728 205.882 227.744 206.203C227.76 206.524 227.67 206.844 227.474 207.163C227.334 207.39 227.15 207.597 226.924 207.783C226.702 207.967 226.397 208.154 226.009 208.342C225.625 208.529 225.118 208.745 224.49 208.989L222.029 209.941L221.999 209.99L225.193 211.097L224.783 211.762L220.448 210.259ZM226.643 210.866L227.024 210.25L232.698 206.993L233.195 207.165L232.606 208.12L232.27 208.004L227.982 210.465L227.953 210.513L232.019 211.923L231.609 212.588L226.643 210.866ZM229.094 213.257L229.993 211.8L230.17 211.513L232.913 207.067L233.705 207.342L229.886 213.531L229.094 213.257ZM234.312 215.169C234.033 215.067 233.781 214.921 233.556 214.731C233.332 214.54 233.171 214.295 233.074 213.995C232.978 213.692 232.976 213.328 233.067 212.903C233.16 212.475 233.383 211.975 233.736 211.403C234.074 210.855 234.431 210.389 234.806 210.006C235.182 209.62 235.568 209.32 235.964 209.105C236.361 208.888 236.76 208.757 237.16 208.712C237.561 208.668 237.956 208.713 238.343 208.847C238.728 208.981 239.027 209.169 239.241 209.412C239.458 209.654 239.586 209.93 239.625 210.242C239.663 210.554 239.612 210.879 239.47 211.219L238.651 210.935C238.747 210.631 238.741 210.349 238.635 210.09C238.529 209.83 238.295 209.638 237.933 209.512C237.4 209.328 236.852 209.391 236.288 209.702C235.727 210.013 235.213 210.545 234.745 211.298L234.799 211.317C235.03 211.189 235.269 211.094 235.516 211.033C235.766 210.971 236.017 210.943 236.268 210.949C236.519 210.956 236.762 211 236.997 211.081C237.391 211.217 237.696 211.431 237.914 211.722C238.132 212.01 238.244 212.344 238.249 212.722C238.256 213.099 238.136 213.486 237.89 213.885C237.654 214.268 237.343 214.586 236.956 214.838C236.571 215.089 236.148 215.248 235.688 215.316C235.231 215.382 234.773 215.333 234.312 215.169ZM234.723 214.504C235.004 214.602 235.296 214.626 235.598 214.576C235.903 214.528 236.185 214.419 236.447 214.251C236.711 214.083 236.923 213.868 237.085 213.606C237.243 213.35 237.323 213.095 237.324 212.842C237.33 212.587 237.26 212.358 237.116 212.157C236.974 211.956 236.762 211.806 236.48 211.709C236.267 211.635 236.046 211.605 235.815 211.618C235.586 211.628 235.361 211.675 235.142 211.758C234.924 211.842 234.724 211.955 234.542 212.097C234.36 212.237 234.212 212.4 234.098 212.585C233.946 212.831 233.868 213.083 233.864 213.34C233.862 213.599 233.933 213.833 234.075 214.041C234.221 214.25 234.436 214.405 234.723 214.504ZM240.128 217.185C239.667 217.025 239.305 216.811 239.043 216.541C238.783 216.27 238.636 215.971 238.599 215.643C238.564 215.312 238.65 214.98 238.859 214.647C239.018 214.384 239.225 214.162 239.478 213.981C239.732 213.797 240.006 213.666 240.299 213.587C240.596 213.506 240.882 213.489 241.157 213.536L241.18 213.5C240.898 213.309 240.739 213.052 240.702 212.729C240.667 212.403 240.751 212.077 240.956 211.749C241.148 211.434 241.41 211.184 241.742 210.998C242.073 210.812 242.44 210.702 242.841 210.668C243.245 210.634 243.648 210.687 244.051 210.826C244.449 210.964 244.76 211.159 244.985 211.411C245.21 211.663 245.336 211.943 245.362 212.253C245.39 212.564 245.308 212.877 245.117 213.192C244.912 213.519 244.631 213.778 244.275 213.968C243.923 214.156 243.562 214.233 243.193 214.198L243.17 214.234C243.394 214.36 243.558 214.534 243.664 214.754C243.771 214.972 243.815 215.213 243.796 215.478C243.778 215.741 243.689 216.003 243.529 216.266C243.321 216.6 243.036 216.863 242.676 217.056C242.318 217.248 241.918 217.357 241.475 217.385C241.035 217.411 240.586 217.344 240.128 217.185ZM240.538 216.52C240.849 216.628 241.145 216.676 241.427 216.664C241.709 216.651 241.962 216.584 242.187 216.461C242.412 216.339 242.594 216.167 242.733 215.946C242.875 215.712 242.935 215.482 242.914 215.257C242.893 215.032 242.8 214.828 242.635 214.646C242.472 214.465 242.246 214.324 241.955 214.223C241.662 214.122 241.369 214.082 241.075 214.105C240.783 214.129 240.516 214.208 240.274 214.341C240.033 214.475 239.842 214.66 239.7 214.894C239.561 215.115 239.501 215.329 239.52 215.536C239.541 215.744 239.638 215.933 239.81 216.103C239.982 216.273 240.225 216.412 240.538 216.52ZM242.35 213.583C242.596 213.668 242.842 213.699 243.087 213.677C243.334 213.655 243.561 213.583 243.769 213.462C243.977 213.341 244.148 213.174 244.282 212.961C244.409 212.751 244.466 212.549 244.455 212.357C244.444 212.163 244.37 211.99 244.232 211.84C244.096 211.687 243.901 211.567 243.648 211.479C243.391 211.39 243.139 211.355 242.893 211.375C242.649 211.393 242.426 211.463 242.224 211.583C242.023 211.702 241.859 211.866 241.732 212.077C241.598 212.29 241.535 212.494 241.544 212.691C241.556 212.888 241.63 213.064 241.768 213.219C241.906 213.375 242.1 213.496 242.35 213.583Z" fill="white"/>
<ellipse cx="1.8482" cy="1.8482" rx="1.8482" ry="1.8482" transform="matrix(0.944817 0.327599 -0.525072 0.851058 203.537 200.079)" fill="white"/>
<ellipse cx="1.8482" cy="1.8482" rx="1.8482" ry="1.8482" transform="matrix(0.944817 0.327599 -0.525072 0.851058 186.075 194.024)" fill="white"/>
<ellipse cx="1.8482" cy="1.8482" rx="1.8482" ry="1.8482" transform="matrix(0.944817 0.327599 -0.525072 0.851058 194.806 197.051)" fill="white"/>
<ellipse cx="1.8482" cy="1.8482" rx="1.8482" ry="1.8482" transform="matrix(0.944817 0.327599 -0.525072 0.851058 177.344 190.997)" fill="white"/>
<path opacity="0.75" d="M194.286 178.794L193.03 178.358C193.131 178.1 193.172 177.856 193.154 177.627C193.136 177.397 193.071 177.185 192.959 176.991C192.848 176.797 192.694 176.626 192.498 176.479C192.305 176.333 192.077 176.214 191.814 176.123C191.339 175.958 190.847 175.918 190.338 176.003C189.832 176.089 189.342 176.302 188.868 176.643C188.397 176.984 187.976 177.454 187.607 178.054C187.234 178.659 187.026 179.206 186.984 179.696C186.945 180.187 187.048 180.605 187.292 180.948C187.537 181.291 187.894 181.544 188.364 181.707C188.624 181.797 188.891 181.851 189.163 181.869C189.439 181.886 189.712 181.864 189.98 181.805C190.248 181.745 190.504 181.647 190.747 181.512C190.995 181.374 191.217 181.196 191.414 180.977L192.668 181.416C192.376 181.758 192.038 182.049 191.656 182.289C191.277 182.527 190.869 182.706 190.431 182.824C189.997 182.941 189.551 182.993 189.093 182.981C188.634 182.969 188.178 182.884 187.725 182.726C187.011 182.479 186.469 182.106 186.098 181.608C185.729 181.107 185.56 180.516 185.59 179.833C185.623 179.152 185.883 178.416 186.371 177.625C186.86 176.832 187.441 176.208 188.113 175.751C188.788 175.292 189.498 175.007 190.244 174.896C190.992 174.783 191.721 174.849 192.433 175.096C192.87 175.248 193.243 175.446 193.551 175.691C193.864 175.934 194.105 176.217 194.274 176.54C194.444 176.86 194.533 177.211 194.539 177.592C194.547 177.97 194.462 178.371 194.286 178.794ZM194.309 185.036C193.917 184.9 193.603 184.712 193.367 184.472C193.133 184.229 193 183.95 192.97 183.634C192.943 183.319 193.042 182.979 193.267 182.614C193.461 182.3 193.687 182.064 193.947 181.908C194.207 181.751 194.487 181.653 194.788 181.614C195.089 181.575 195.4 181.574 195.719 181.611C196.038 181.648 196.353 181.702 196.665 181.772C197.06 181.862 197.38 181.934 197.625 181.99C197.873 182.044 198.066 182.059 198.207 182.038C198.347 182.016 198.458 181.94 198.539 181.809L198.554 181.784C198.75 181.467 198.802 181.187 198.71 180.944C198.622 180.702 198.383 180.514 197.994 180.379C197.589 180.238 197.219 180.209 196.886 180.29C196.556 180.369 196.287 180.492 196.078 180.657L195.089 180.032C195.433 179.74 195.797 179.535 196.183 179.416C196.573 179.296 196.966 179.248 197.363 179.271C197.761 179.291 198.146 179.366 198.519 179.496C198.766 179.581 199.011 179.699 199.255 179.848C199.503 179.995 199.705 180.18 199.862 180.401C200.021 180.624 200.099 180.89 200.097 181.201C200.096 181.508 199.97 181.865 199.72 182.272L197.437 185.971L196.262 185.563L196.731 184.802L196.683 184.785C196.519 184.898 196.317 184.995 196.078 185.077C195.839 185.158 195.569 185.201 195.27 185.206C194.97 185.211 194.65 185.154 194.309 185.036ZM195.108 184.256C195.441 184.372 195.762 184.411 196.071 184.375C196.383 184.339 196.66 184.247 196.901 184.099C197.147 183.949 197.337 183.764 197.473 183.544L197.916 182.826C197.849 182.85 197.744 182.857 197.599 182.848C197.459 182.838 197.304 182.818 197.133 182.788C196.964 182.756 196.8 182.724 196.64 182.692C196.482 182.658 196.35 182.629 196.243 182.607C195.993 182.553 195.752 182.523 195.52 182.519C195.291 182.516 195.082 182.554 194.893 182.632C194.709 182.709 194.557 182.844 194.438 183.038C194.272 183.306 194.257 183.547 194.392 183.761C194.528 183.973 194.767 184.138 195.108 184.256ZM199.041 186.527L202.478 180.956L203.641 181.36L203.095 182.245L203.16 182.267C203.457 182.006 203.801 181.839 204.192 181.766C204.586 181.692 204.965 181.717 205.327 181.843C205.402 181.869 205.489 181.902 205.588 181.942C205.69 181.984 205.768 182.018 205.823 182.046L205.183 183.083C205.142 183.054 205.064 183.011 204.95 182.954C204.837 182.894 204.719 182.843 204.595 182.8C204.311 182.701 204.023 182.668 203.733 182.699C203.448 182.729 203.182 182.818 202.935 182.964C202.69 183.108 202.492 183.301 202.343 183.542L200.245 186.944L199.041 186.527ZM210.081 183.593L209.544 184.463L206.166 183.292L206.703 182.421L210.081 183.593ZM208.432 181.401L209.636 181.818L206.385 187.088C206.255 187.298 206.192 187.469 206.197 187.599C206.202 187.727 206.248 187.83 206.334 187.907C206.425 187.982 206.536 188.043 206.667 188.088C206.764 188.122 206.852 188.145 206.932 188.158C207.012 188.171 207.074 188.181 207.119 188.188L206.784 189.159C206.699 189.159 206.585 189.148 206.441 189.128C206.296 189.11 206.126 189.069 205.931 189.004C205.611 188.899 205.347 188.746 205.139 188.545C204.931 188.343 204.811 188.102 204.779 187.821C204.747 187.54 204.835 187.231 205.042 186.895L208.432 181.401ZM209.699 190.372C209.308 190.236 208.994 190.048 208.757 189.808C208.523 189.565 208.39 189.286 208.36 188.97C208.333 188.655 208.432 188.316 208.657 187.95C208.851 187.636 209.078 187.401 209.337 187.244C209.597 187.088 209.877 186.99 210.178 186.95C210.48 186.911 210.79 186.91 211.109 186.947C211.428 186.984 211.744 187.038 212.056 187.108C212.45 187.198 212.77 187.271 213.016 187.326C213.263 187.38 213.457 187.396 213.597 187.374C213.738 187.352 213.848 187.276 213.929 187.146L213.944 187.12C214.14 186.803 214.192 186.524 214.101 186.281C214.012 186.039 213.773 185.85 213.384 185.715C212.979 185.575 212.609 185.545 212.276 185.626C211.947 185.706 211.677 185.828 211.468 185.993L210.48 185.369C210.823 185.077 211.187 184.871 211.573 184.753C211.963 184.633 212.357 184.584 212.753 184.607C213.151 184.628 213.536 184.703 213.909 184.832C214.156 184.918 214.402 185.035 214.645 185.184C214.893 185.332 215.095 185.516 215.252 185.738C215.411 185.96 215.489 186.227 215.487 186.537C215.486 186.845 215.36 187.202 215.11 187.608L212.827 191.307L211.652 190.899L212.122 190.138L212.073 190.121C211.909 190.234 211.707 190.332 211.468 190.413C211.229 190.495 210.959 190.538 210.66 190.542C210.361 190.547 210.04 190.49 209.699 190.372ZM210.498 189.593C210.831 189.708 211.152 189.747 211.461 189.711C211.773 189.675 212.05 189.583 212.291 189.435C212.537 189.285 212.727 189.101 212.863 188.881L213.306 188.162C213.239 188.186 213.134 188.194 212.989 188.185C212.849 188.174 212.694 188.154 212.523 188.124C212.354 188.092 212.19 188.06 212.03 188.028C211.872 187.994 211.74 187.966 211.633 187.943C211.383 187.889 211.142 187.86 210.91 187.856C210.681 187.852 210.472 187.89 210.283 187.968C210.099 188.045 209.947 188.181 209.828 188.374C209.662 188.642 209.647 188.884 209.782 189.098C209.919 189.309 210.157 189.474 210.498 189.593ZM213.133 183.832L212.338 183.53C212.585 183.128 212.902 182.849 213.289 182.693C213.678 182.537 214.05 182.521 214.404 182.644C214.568 182.701 214.696 182.776 214.788 182.869C214.882 182.961 214.962 183.057 215.029 183.16C215.1 183.261 215.174 183.355 215.25 183.443C215.33 183.53 215.437 183.596 215.572 183.643C215.727 183.697 215.886 183.687 216.049 183.615C216.213 183.543 216.344 183.428 216.441 183.271L217.205 183.593C216.956 183.997 216.639 184.273 216.255 184.421C215.871 184.567 215.503 184.58 215.15 184.461C214.959 184.395 214.816 184.316 214.72 184.224C214.628 184.13 214.553 184.035 214.495 183.939C214.438 183.84 214.375 183.747 214.304 183.661C214.234 183.575 214.127 183.507 213.985 183.458C213.834 183.406 213.678 183.416 213.516 183.489C213.358 183.561 213.23 183.675 213.133 183.832ZM216.966 192.879C216.387 192.678 215.955 192.383 215.67 191.993C215.386 191.604 215.257 191.153 215.283 190.64C215.31 190.127 215.501 189.582 215.856 189.007C216.212 188.429 216.644 187.965 217.149 187.615C217.655 187.265 218.198 187.045 218.778 186.956C219.358 186.866 219.938 186.922 220.517 187.123C221.097 187.324 221.529 187.619 221.814 188.009C222.098 188.398 222.226 188.85 222.198 189.366C222.17 189.881 221.978 190.428 221.621 191.006C221.266 191.581 220.837 192.043 220.332 192.39C219.828 192.738 219.286 192.956 218.706 193.046C218.126 193.136 217.546 193.08 216.966 192.879ZM217.532 191.97C217.908 192.1 218.274 192.119 218.632 192.025C218.989 191.932 219.319 191.757 219.62 191.501C219.924 191.245 220.187 190.939 220.408 190.581C220.627 190.225 220.768 189.878 220.831 189.539C220.897 189.198 220.863 188.894 220.728 188.627C220.593 188.36 220.338 188.162 219.962 188.031C219.584 187.9 219.214 187.882 218.852 187.977C218.493 188.072 218.161 188.249 217.855 188.507C217.554 188.763 217.293 189.069 217.074 189.425C216.853 189.783 216.71 190.131 216.645 190.469C216.582 190.808 216.619 191.11 216.756 191.375C216.895 191.64 217.154 191.839 217.532 191.97ZM226.511 196.184C226.012 196.011 225.637 195.741 225.387 195.376C225.141 195.009 225.038 194.572 225.08 194.067C225.125 193.561 225.333 193.006 225.705 192.404C226.076 191.802 226.505 191.326 226.992 190.975C227.482 190.625 227.992 190.405 228.525 190.313C229.057 190.222 229.571 190.262 230.068 190.435C230.451 190.568 230.724 190.733 230.886 190.93C231.052 191.125 231.153 191.322 231.188 191.519C231.225 191.716 231.244 191.886 231.245 192.027L231.318 192.052L233.02 189.292L234.224 189.71L229.642 197.137L228.466 196.73L229.001 195.863L228.9 195.828C228.755 195.921 228.567 196.02 228.336 196.125C228.108 196.231 227.84 196.3 227.534 196.332C227.228 196.363 226.887 196.314 226.511 196.184ZM227.347 195.351C227.693 195.471 228.037 195.49 228.377 195.409C228.721 195.326 229.046 195.158 229.352 194.906C229.66 194.655 229.935 194.333 230.177 193.942C230.415 193.555 230.562 193.195 230.618 192.862C230.673 192.529 230.632 192.24 230.493 191.995C230.354 191.75 230.109 191.567 229.757 191.445C229.395 191.319 229.04 191.299 228.694 191.385C228.348 191.47 228.023 191.638 227.719 191.888C227.418 192.138 227.154 192.447 226.927 192.815C226.698 193.187 226.553 193.544 226.493 193.884C226.433 194.224 226.47 194.523 226.604 194.781C226.742 195.037 226.99 195.227 227.347 195.351ZM233.956 198.77C233.347 198.558 232.894 198.259 232.599 197.872C232.308 197.483 232.174 197.034 232.2 196.523C232.229 196.011 232.422 195.466 232.778 194.888C233.13 194.317 233.559 193.855 234.063 193.502C234.571 193.149 235.113 192.925 235.691 192.829C236.271 192.734 236.848 192.786 237.422 192.985C237.771 193.106 238.078 193.275 238.341 193.492C238.604 193.71 238.797 193.975 238.921 194.288C239.044 194.601 239.071 194.961 239.002 195.368C238.934 195.773 238.745 196.229 238.433 196.734L238.196 197.118L233.28 195.414L233.781 194.601L237.517 195.897C237.693 195.612 237.785 195.337 237.792 195.072C237.8 194.805 237.727 194.567 237.573 194.358C237.421 194.149 237.189 193.991 236.878 193.883C236.54 193.766 236.198 193.739 235.853 193.801C235.513 193.862 235.2 193.988 234.916 194.18C234.635 194.371 234.409 194.605 234.238 194.883L233.846 195.518C233.616 195.89 233.493 196.232 233.477 196.543C233.464 196.856 233.546 197.126 233.724 197.355C233.904 197.582 234.169 197.756 234.521 197.878C234.749 197.957 234.975 198 235.199 198.007C235.424 198.012 235.641 197.979 235.851 197.908C236.061 197.837 236.256 197.727 236.436 197.578L237.461 198.158C237.184 198.429 236.857 198.637 236.48 198.782C236.108 198.926 235.706 198.999 235.274 199.002C234.846 199.003 234.407 198.926 233.956 198.77ZM178.908 195.179C178.309 194.972 177.869 194.671 177.588 194.277C177.311 193.881 177.19 193.427 177.226 192.914C177.262 192.402 177.453 191.866 177.797 191.307C178.146 190.742 178.572 190.283 179.076 189.933C179.58 189.579 180.123 189.355 180.703 189.26C181.283 189.164 181.864 189.218 182.447 189.42C182.916 189.583 183.287 189.806 183.558 190.091C183.83 190.373 183.992 190.694 184.045 191.052C184.1 191.412 184.033 191.786 183.845 192.176L182.673 191.77C182.77 191.486 182.761 191.21 182.646 190.942C182.535 190.674 182.287 190.474 181.903 190.341C181.568 190.224 181.224 190.202 180.874 190.274C180.527 190.345 180.194 190.502 179.874 190.746C179.555 190.988 179.273 191.307 179.029 191.704C178.778 192.11 178.63 192.484 178.585 192.827C178.54 193.169 178.592 193.465 178.742 193.713C178.895 193.963 179.141 194.146 179.482 194.265C179.71 194.344 179.94 194.378 180.171 194.367C180.407 194.355 180.632 194.299 180.846 194.2C181.063 194.102 181.259 193.962 181.434 193.779L182.605 194.185C182.34 194.531 182.011 194.807 181.62 195.015C181.228 195.222 180.799 195.343 180.334 195.379C179.872 195.415 179.396 195.349 178.908 195.179ZM182.805 196.394L186.242 190.824L187.406 191.227L186.86 192.112L186.924 192.134C187.222 191.874 187.566 191.707 187.956 191.634C188.351 191.559 188.729 191.585 189.092 191.71C189.167 191.737 189.254 191.77 189.353 191.81C189.455 191.851 189.533 191.885 189.587 191.913L188.947 192.95C188.907 192.922 188.829 192.878 188.714 192.821C188.601 192.761 188.483 192.71 188.36 192.667C188.075 192.569 187.788 192.535 187.498 192.567C187.212 192.597 186.946 192.685 186.699 192.831C186.454 192.975 186.257 193.168 186.108 193.41L184.009 196.812L182.805 196.394ZM189.531 198.863C188.922 198.651 188.469 198.352 188.174 197.965C187.883 197.576 187.749 197.127 187.775 196.616C187.804 196.104 187.997 195.559 188.353 194.981C188.705 194.41 189.134 193.948 189.638 193.595C190.146 193.243 190.688 193.018 191.266 192.922C191.846 192.827 192.423 192.879 192.997 193.078C193.346 193.199 193.653 193.368 193.916 193.586C194.179 193.803 194.372 194.068 194.496 194.381C194.619 194.694 194.646 195.054 194.577 195.461C194.509 195.866 194.32 196.322 194.008 196.827L193.771 197.211L188.855 195.507L189.356 194.695L193.092 195.99C193.268 195.705 193.36 195.43 193.367 195.165C193.375 194.898 193.302 194.66 193.148 194.451C192.996 194.243 192.764 194.084 192.453 193.976C192.115 193.859 191.773 193.832 191.428 193.894C191.088 193.955 190.775 194.082 190.491 194.273C190.21 194.464 189.984 194.698 189.813 194.976L189.421 195.611C189.191 195.983 189.068 196.325 189.052 196.636C189.039 196.949 189.121 197.219 189.299 197.448C189.479 197.675 189.744 197.849 190.096 197.971C190.324 198.05 190.55 198.093 190.774 198.1C190.999 198.105 191.216 198.072 191.426 198.001C191.636 197.93 191.831 197.82 192.011 197.671L193.036 198.251C192.759 198.522 192.432 198.73 192.055 198.875C191.683 199.019 191.281 199.092 190.849 199.095C190.421 199.097 189.982 199.019 189.531 198.863ZM192.868 192.219L194.841 190.873L196.11 191.313L193.83 192.552L192.868 192.219ZM195.837 201.045C195.338 200.872 194.963 200.602 194.713 200.237C194.467 199.87 194.365 199.434 194.406 198.929C194.451 198.422 194.66 197.868 195.031 197.265C195.403 196.663 195.832 196.187 196.319 195.836C196.808 195.487 197.319 195.266 197.851 195.175C198.383 195.083 198.898 195.124 199.394 195.296C199.778 195.429 200.051 195.594 200.213 195.791C200.379 195.987 200.479 196.183 200.514 196.38C200.552 196.578 200.571 196.747 200.572 196.888L200.644 196.914L202.347 194.154L203.551 194.571L198.968 201.999L197.793 201.591L198.328 200.724L198.227 200.689C198.081 200.783 197.893 200.882 197.662 200.986C197.434 201.092 197.167 201.161 196.86 201.193C196.554 201.225 196.213 201.175 195.837 201.045ZM196.674 200.212C197.02 200.332 197.363 200.352 197.703 200.27C198.048 200.187 198.373 200.019 198.678 199.767C198.987 199.516 199.261 199.194 199.503 198.803C199.742 198.416 199.889 198.056 199.944 197.723C200 197.39 199.958 197.101 199.819 196.856C199.68 196.612 199.435 196.428 199.083 196.306C198.721 196.181 198.367 196.161 198.021 196.246C197.675 196.332 197.35 196.499 197.046 196.749C196.745 197 196.481 197.309 196.254 197.676C196.024 198.049 195.879 198.405 195.819 198.745C195.759 199.085 195.796 199.384 195.931 199.642C196.069 199.898 196.317 200.088 196.674 200.212ZM200.687 202.594L204.123 197.024L205.327 197.441L201.89 203.012L200.687 202.594ZM205.262 196.375C205.052 196.302 204.911 196.177 204.839 195.999C204.77 195.82 204.79 195.642 204.899 195.466C205.009 195.287 205.177 195.16 205.402 195.085C205.632 195.009 205.851 195.008 206.06 195.08C206.27 195.153 206.409 195.279 206.477 195.458C206.55 195.636 206.531 195.814 206.421 195.993C206.312 196.17 206.143 196.296 205.914 196.372C205.688 196.447 205.471 196.448 205.262 196.375ZM209.834 199.004L209.297 199.874L205.919 198.703L206.456 197.832L209.834 199.004ZM208.185 196.812L209.389 197.229L206.138 202.499C206.008 202.709 205.945 202.88 205.949 203.01C205.955 203.138 206.001 203.241 206.087 203.318C206.177 203.393 206.288 203.454 206.42 203.499C206.516 203.533 206.605 203.556 206.685 203.569C206.765 203.582 206.827 203.592 206.872 203.599L206.536 204.57C206.452 204.57 206.337 204.559 206.194 204.539C206.048 204.521 205.878 204.48 205.684 204.415C205.364 204.31 205.1 204.157 204.892 203.956C204.684 203.754 204.564 203.513 204.532 203.232C204.5 202.951 204.588 202.642 204.795 202.306L208.185 196.812ZM210.198 206.029C209.618 205.827 209.186 205.532 208.901 205.143C208.617 204.754 208.488 204.303 208.514 203.79C208.541 203.276 208.732 202.732 209.087 202.157C209.443 201.579 209.875 201.115 210.381 200.765C210.886 200.415 211.429 200.195 212.009 200.106C212.589 200.016 213.169 200.072 213.749 200.273C214.328 200.474 214.76 200.769 215.045 201.158C215.329 201.548 215.458 202 215.429 202.516C215.401 203.031 215.209 203.578 214.852 204.156C214.497 204.731 214.068 205.193 213.563 205.54C213.059 205.888 212.517 206.106 211.937 206.196C211.357 206.285 210.777 206.23 210.198 206.029ZM210.763 205.12C211.139 205.25 211.506 205.268 211.863 205.175C212.22 205.082 212.55 204.907 212.851 204.651C213.156 204.395 213.418 204.088 213.639 203.731C213.858 203.375 213.999 203.028 214.062 202.688C214.129 202.348 214.095 202.044 213.959 201.777C213.824 201.51 213.569 201.311 213.193 201.181C212.815 201.05 212.445 201.032 212.083 201.126C211.724 201.222 211.392 201.399 211.086 201.657C210.785 201.913 210.524 202.219 210.305 202.575C210.084 202.932 209.941 203.281 209.876 203.619C209.813 203.958 209.85 204.26 209.987 204.525C210.126 204.79 210.385 204.988 210.763 205.12Z" fill="white"/>
<path d="M447.742 160.133L458.365 163.816L447.757 181.01L437.134 177.327L447.742 160.133Z" fill="#FF8AA2"/>
<path d="M443.112 168.964C445.268 165.47 449 163.003 453.037 161.969C451.879 159.797 449.826 158.016 446.993 157.034C440.281 154.707 431.834 157.715 428.105 163.76C424.375 169.805 426.787 176.579 433.498 178.906C436.331 179.888 439.471 179.908 442.428 179.163C440.848 176.218 440.957 172.457 443.112 168.964Z" fill="#FD6887"/>
<path d="M467.394 177.383C463.664 183.428 455.217 186.437 448.506 184.11C445.673 183.127 443.619 181.346 442.462 179.174C446.532 178.152 450.231 175.673 452.386 172.179C454.542 168.686 454.632 164.956 453.07 161.98C456.027 161.235 459.167 161.255 462 162.237C468.711 164.564 471.105 171.368 467.394 177.383L467.394 177.383Z" fill="#FD6887"/>
<rect width="291.821" height="21.832" transform="matrix(0.944817 0.327599 -0.525072 0.851058 206.054 114.491)" fill="#F7F8FD"/>
<rect width="291.093" height="170.035" rx="10" transform="matrix(0.938191 -0.346117 0.22937 0.973339 0 100.752)" fill="url(#paint1_linear_270506_7883)"/>
<mask id="mask1_270506_7883" style="mask-type:alpha" maskUnits="userSpaceOnUse" x="0" y="0" width="313" height="267">
<rect width="291.093" height="170.035" transform="matrix(0.938191 -0.346117 0.22937 0.973339 0 100.752)" fill="#ED713C"/>
</mask>
<g mask="url(#mask1_270506_7883)">
<ellipse opacity="0.1" cx="148.319" cy="104.424" rx="148.319" ry="104.424" transform="matrix(0.938191 -0.346117 0.22937 0.973339 -96.7141 234.199)" fill="#333333"/>
<ellipse opacity="0.08" cx="148.319" cy="104.424" rx="148.319" ry="104.424" transform="matrix(0.938191 -0.346117 0.22937 0.973339 82.6096 -68.5525)" fill="#333333"/>
</g>
<path d="M254.634 160.259C254.107 160.451 253.623 160.473 253.183 160.325C252.742 160.177 252.359 159.866 252.032 159.393C251.706 158.92 251.452 158.299 251.271 157.529C251.09 156.762 251.034 156.07 251.104 155.453C251.176 154.835 251.364 154.315 251.67 153.891C251.978 153.467 252.393 153.159 252.915 152.966C253.437 152.774 253.919 152.753 254.36 152.903C254.8 153.051 255.183 153.36 255.509 153.831C255.837 154.299 256.091 154.917 256.272 155.684C256.453 156.456 256.51 157.151 256.441 157.77C256.371 158.387 256.184 158.908 255.879 159.334C255.573 159.758 255.158 160.066 254.634 160.259ZM254.416 159.336C254.878 159.166 255.184 158.799 255.334 158.235C255.486 157.671 255.457 156.946 255.249 156.061C255.11 155.474 254.933 154.999 254.718 154.638C254.504 154.274 254.261 154.027 253.99 153.9C253.72 153.769 253.433 153.76 253.129 153.872C252.669 154.041 252.363 154.41 252.212 154.976C252.061 155.543 252.088 156.268 252.294 157.152C252.433 157.741 252.609 158.219 252.823 158.583C253.038 158.944 253.281 159.189 253.55 159.318C253.819 159.444 254.108 159.45 254.416 159.336ZM258.802 158.594L260.341 151.384L260.329 151.332L256.884 152.603L256.668 151.687L261.179 150.023L261.402 150.97L259.879 158.197L258.802 158.594ZM265.34 148.127L265.139 157.413L264.249 157.741L264.451 148.455L265.34 148.127ZM268.389 155.057L268.206 154.283L269.93 150.949C270.113 150.589 270.261 150.278 270.373 150.016C270.487 149.751 270.562 149.512 270.599 149.298C270.635 149.084 270.629 148.873 270.58 148.666C270.525 148.431 270.424 148.248 270.277 148.117C270.129 147.983 269.953 147.904 269.747 147.88C269.54 147.854 269.321 147.883 269.09 147.968C268.846 148.058 268.645 148.189 268.487 148.36C268.329 148.531 268.224 148.729 268.171 148.954C268.118 149.179 268.121 149.418 268.181 149.671L267.198 150.034C267.096 149.603 267.103 149.191 267.218 148.798C267.333 148.405 267.536 148.058 267.827 147.758C268.118 147.455 268.476 147.226 268.9 147.069C269.329 146.911 269.727 146.86 270.096 146.917C270.466 146.971 270.779 147.116 271.035 147.352C271.29 147.586 271.463 147.893 271.552 148.273C271.614 148.536 271.627 148.811 271.591 149.097C271.556 149.383 271.459 149.723 271.299 150.118C271.138 150.51 270.901 151.002 270.589 151.593L269.58 153.566L269.592 153.618L272.664 152.484L272.88 153.4L268.389 155.057ZM277.017 151.979C276.711 152.087 276.398 152.14 276.076 152.138C275.757 152.136 275.447 152.05 275.146 151.88C274.846 151.711 274.572 151.435 274.325 151.053C274.08 150.669 273.881 150.152 273.727 149.5C273.582 148.882 273.511 148.312 273.516 147.789C273.523 147.266 273.6 146.798 273.747 146.386C273.893 145.971 274.104 145.619 274.381 145.329C274.658 145.039 274.994 144.821 275.389 144.675C275.796 144.525 276.176 144.475 276.531 144.524C276.885 144.574 277.195 144.709 277.459 144.93C277.726 145.149 277.93 145.436 278.071 145.79L277.055 146.164C276.917 145.895 276.723 145.704 276.475 145.593C276.227 145.482 275.938 145.487 275.609 145.608C275.11 145.793 274.773 146.162 274.6 146.717C274.428 147.271 274.436 147.951 274.624 148.756L274.674 148.737C274.744 148.493 274.848 148.27 274.986 148.066C275.126 147.859 275.293 147.678 275.489 147.524C275.686 147.366 275.903 147.243 276.141 147.155C276.536 147.01 276.917 146.978 277.284 147.06C277.653 147.14 277.974 147.319 278.248 147.599C278.521 147.879 278.711 148.245 278.818 148.696C278.924 149.148 278.922 149.593 278.81 150.033C278.701 150.471 278.494 150.863 278.189 151.209C277.884 151.552 277.493 151.809 277.017 151.979ZM276.801 151.082C277.064 150.985 277.282 150.832 277.457 150.622C277.632 150.412 277.753 150.172 277.82 149.902C277.887 149.632 277.887 149.358 277.821 149.079C277.757 148.807 277.64 148.581 277.47 148.401C277.302 148.22 277.1 148.101 276.865 148.046C276.631 147.989 276.385 148.008 276.125 148.104C275.927 148.177 275.753 148.284 275.603 148.424C275.455 148.564 275.334 148.727 275.24 148.912C275.146 149.097 275.083 149.292 275.052 149.499C275.023 149.703 275.032 149.904 275.079 150.102C275.141 150.367 275.258 150.591 275.429 150.773C275.602 150.955 275.808 151.076 276.047 151.139C276.288 151.197 276.539 151.179 276.801 151.082Z" fill="white"/>
<path opacity="0.9" d="M61.1547 229.478C60.7532 229.626 60.3844 229.639 60.0484 229.517C59.7121 229.392 59.4182 229.141 59.1668 228.763C58.9151 228.383 58.7166 227.885 58.5715 227.269C58.4273 226.657 58.3788 226.107 58.4259 225.619C58.4745 225.128 58.613 224.716 58.8417 224.383C59.0717 224.048 59.3857 223.807 59.7837 223.66C60.1818 223.513 60.5492 223.503 60.886 223.629C61.2242 223.753 61.5191 224.005 61.7709 224.385C62.024 224.762 62.2227 225.257 62.3669 225.869C62.512 226.485 62.5612 227.038 62.5145 227.528C62.4673 228.016 62.3294 228.427 62.1007 228.759C61.8716 229.09 61.5563 229.33 61.1547 229.478ZM61.0114 228.87C61.4094 228.723 61.6717 228.41 61.7982 227.93C61.9247 227.451 61.901 226.842 61.7273 226.105C61.6117 225.615 61.4627 225.216 61.2802 224.908C61.0994 224.6 60.8936 224.391 60.6627 224.28C60.4335 224.168 60.1875 224.16 59.9245 224.257C59.53 224.403 59.2693 224.719 59.1423 225.204C59.0149 225.688 59.0379 226.298 59.2112 227.033C59.3268 227.524 59.4747 227.922 59.655 228.228C59.8353 228.534 60.0398 228.742 60.2685 228.852C60.499 228.962 60.7466 228.967 61.0114 228.87ZM66.3148 227.574C65.9132 227.723 65.5445 227.735 65.2085 227.613C64.8721 227.489 64.5782 227.237 64.3269 226.859C64.0751 226.479 63.8767 225.981 63.7316 225.366C63.5874 224.754 63.5388 224.203 63.586 223.715C63.6345 223.224 63.7731 222.813 64.0018 222.48C64.2318 222.144 64.5458 221.903 64.9438 221.757C65.3418 221.61 65.7092 221.599 66.0461 221.726C66.3842 221.849 66.6792 222.101 66.931 222.481C67.1841 222.859 67.3828 223.353 67.527 223.965C67.6721 224.581 67.7213 225.134 67.6745 225.624C67.6274 226.112 67.4894 226.523 67.2608 226.856C67.0317 227.187 66.7164 227.426 66.3148 227.574ZM66.1714 226.966C66.5695 226.819 66.8317 226.506 66.9582 226.027C67.0847 225.547 67.0611 224.939 66.8873 224.201C66.7718 223.711 66.6227 223.312 66.4402 223.005C66.2595 222.697 66.0536 222.487 65.8227 222.376C65.5936 222.264 65.3475 222.257 65.0845 222.354C64.6901 222.499 64.4293 222.815 64.3024 223.301C64.175 223.784 64.1979 224.394 64.3713 225.13C64.4868 225.62 64.6347 226.018 64.815 226.324C64.9954 226.631 65.1999 226.839 65.4286 226.949C65.6591 227.058 65.9067 227.064 66.1714 226.966ZM71.4748 225.671C71.0733 225.819 70.7045 225.832 70.3685 225.709C70.0322 225.585 69.7383 225.334 69.4869 224.955C69.2352 224.576 69.0367 224.078 68.8916 223.462C68.7474 222.85 68.6989 222.3 68.7461 221.812C68.7946 221.321 68.9332 220.909 69.1618 220.576C69.3918 220.241 69.7058 220 70.1038 219.853C70.5019 219.706 70.8693 219.696 71.2061 219.822C71.5443 219.946 71.8392 220.197 72.091 220.577C72.3441 220.955 72.5428 221.45 72.687 222.062C72.8321 222.677 72.8813 223.23 72.8346 223.72C72.7874 224.209 72.6495 224.619 72.4208 224.952C72.1918 225.283 71.8764 225.523 71.4748 225.671ZM71.3315 225.062C71.7295 224.916 71.9918 224.602 72.1183 224.123C72.2448 223.644 72.2211 223.035 72.0474 222.298C71.9318 221.807 71.7828 221.409 71.6003 221.101C71.4195 220.793 71.2137 220.584 70.9828 220.472C70.7536 220.361 70.5076 220.353 70.2446 220.45C69.8501 220.596 69.5894 220.911 69.4624 221.397C69.335 221.881 69.358 222.49 69.5313 223.226C69.6469 223.716 69.7948 224.115 69.9751 224.421C70.1554 224.727 70.3599 224.935 70.5886 225.045C70.8191 225.154 71.0667 225.16 71.3315 225.062ZM76.6349 223.767C76.2333 223.915 75.8646 223.928 75.5286 223.806C75.1922 223.681 74.8983 223.43 74.647 223.052C74.3952 222.672 74.1968 222.174 74.0517 221.558C73.9075 220.946 73.8589 220.396 73.9061 219.908C73.9546 219.417 74.0932 219.005 74.3219 218.672C74.5519 218.337 74.8659 218.096 75.2639 217.949C75.6619 217.802 76.0293 217.792 76.3662 217.918C76.7043 218.042 76.9993 218.294 77.2511 218.674C77.5042 219.051 77.7029 219.546 77.8471 220.158C77.9922 220.774 78.0414 221.327 77.9946 221.817C77.9475 222.305 77.8096 222.716 77.5809 223.048C77.3518 223.379 77.0365 223.619 76.6349 223.767ZM76.4915 223.159C76.8896 223.012 77.1518 222.699 77.2783 222.219C77.4048 221.74 77.3812 221.131 77.2074 220.394C77.0919 219.904 76.9428 219.505 76.7603 219.198C76.5796 218.89 76.3737 218.68 76.1428 218.569C75.9137 218.457 75.6676 218.45 75.4046 218.547C75.0102 218.692 74.7495 219.008 74.6225 219.493C74.4951 219.977 74.518 220.587 74.6914 221.322C74.8069 221.813 74.9548 222.211 75.1352 222.517C75.3155 222.823 75.52 223.031 75.7487 223.141C75.9792 223.251 76.2268 223.256 76.4915 223.159ZM84.375 220.912C83.9734 221.06 83.6046 221.073 83.2687 220.95C82.9323 220.826 82.6384 220.575 82.3871 220.196C82.1353 219.816 81.9369 219.319 81.7918 218.703C81.6475 218.091 81.599 217.541 81.6462 217.052C81.6947 216.562 81.8333 216.15 82.0619 215.817C82.2919 215.482 82.6059 215.241 83.004 215.094C83.402 214.947 83.7694 214.937 84.1062 215.063C84.4444 215.187 84.7394 215.438 84.9912 215.818C85.2443 216.196 85.443 216.691 85.5872 217.303C85.7323 217.918 85.7815 218.471 85.7347 218.961C85.6875 219.45 85.5496 219.86 85.321 220.193C85.0919 220.524 84.7766 220.764 84.375 220.912ZM84.2316 220.303C84.6296 220.157 84.8919 219.843 85.0184 219.364C85.1449 218.884 85.1213 218.276 84.9475 217.539C84.8319 217.048 84.6829 216.649 84.5004 216.342C84.3197 216.034 84.1138 215.824 83.8829 215.713C83.6538 215.601 83.4077 215.594 83.1447 215.691C82.7503 215.837 82.4895 216.152 82.3626 216.638C82.2352 217.122 82.2581 217.731 82.4314 218.467C82.547 218.957 82.6949 219.355 82.8752 219.662C83.0555 219.968 83.26 220.176 83.4888 220.286C83.7192 220.395 83.9669 220.401 84.2316 220.303ZM89.535 219.008C89.1335 219.156 88.7647 219.169 88.4287 219.047C88.0923 218.922 87.7985 218.671 87.5471 218.293C87.2954 217.913 87.0969 217.415 86.9518 216.799C86.8076 216.187 86.7591 215.637 86.8062 215.149C86.8548 214.658 86.9933 214.246 87.222 213.913C87.452 213.578 87.766 213.337 88.164 213.19C88.562 213.043 88.9295 213.033 89.2663 213.159C89.6045 213.283 89.8994 213.535 90.1512 213.915C90.4043 214.292 90.603 214.787 90.7472 215.399C90.8923 216.015 90.9415 216.568 90.8948 217.058C90.8476 217.546 90.7097 217.957 90.481 218.289C90.2519 218.62 89.9366 218.86 89.535 219.008ZM89.3917 218.4C89.7897 218.253 90.052 217.94 90.1785 217.46C90.305 216.981 90.2813 216.372 90.1076 215.635C89.992 215.145 89.843 214.746 89.6604 214.438C89.4797 214.13 89.2739 213.921 89.043 213.81C88.8138 213.698 88.5677 213.69 88.3048 213.787C87.9103 213.933 87.6496 214.249 87.5226 214.734C87.3952 215.218 87.4182 215.828 87.5915 216.563C87.707 217.054 87.855 217.452 88.0353 217.758C88.2156 218.064 88.4201 218.272 88.6488 218.382C88.8793 218.492 89.1269 218.497 89.3917 218.4ZM94.6951 217.104C94.2935 217.253 93.9247 217.265 93.5888 217.143C93.2524 217.018 92.9585 216.767 92.7072 216.389C92.4554 216.009 92.257 215.511 92.1119 214.896C91.9676 214.284 91.9191 213.733 91.9663 213.245C92.0148 212.754 92.1534 212.343 92.382 212.01C92.612 211.674 92.9261 211.433 93.3241 211.286C93.7221 211.14 94.0895 211.129 94.4263 211.256C94.7645 211.379 95.0595 211.631 95.3113 212.011C95.5644 212.389 95.7631 212.883 95.9073 213.495C96.0524 214.111 96.1016 214.664 96.0548 215.154C96.0076 215.642 95.8697 216.053 95.6411 216.386C95.412 216.717 95.0967 216.956 94.6951 217.104ZM94.5517 216.496C94.9497 216.349 95.212 216.036 95.3385 215.557C95.465 215.077 95.4414 214.469 95.2676 213.731C95.1521 213.241 95.003 212.842 94.8205 212.535C94.6398 212.227 94.4339 212.017 94.203 211.906C93.9739 211.794 93.7278 211.787 93.4648 211.884C93.0704 212.029 92.8096 212.345 92.6827 212.831C92.5553 213.314 92.5782 213.924 92.7515 214.66C92.8671 215.15 93.015 215.548 93.1953 215.854C93.3756 216.161 93.5802 216.369 93.8089 216.479C94.0393 216.588 94.287 216.594 94.5517 216.496ZM99.8551 215.201C99.4536 215.349 99.0848 215.362 98.7488 215.239C98.4124 215.115 98.1186 214.864 97.8672 214.485C97.6155 214.105 97.417 213.608 97.2719 212.992C97.1277 212.38 97.0792 211.83 97.1263 211.341C97.1749 210.851 97.3134 210.439 97.5421 210.106C97.7721 209.771 98.0861 209.53 98.4841 209.383C98.8821 209.236 99.2496 209.226 99.5864 209.352C99.9246 209.476 100.22 209.727 100.471 210.107C100.724 210.485 100.923 210.98 101.067 211.592C101.212 212.207 101.262 212.76 101.215 213.25C101.168 213.739 101.03 214.149 100.801 214.482C100.572 214.813 100.257 215.053 99.8551 215.201ZM99.7118 214.592C100.11 214.446 100.372 214.132 100.499 213.653C100.625 213.173 100.601 212.565 100.428 211.828C100.312 211.337 100.163 210.938 99.9806 210.631C99.7998 210.323 99.594 210.114 99.3631 210.002C99.1339 209.891 98.8879 209.883 98.6249 209.98C98.2304 210.126 97.9697 210.441 97.8427 210.927C97.7153 211.411 97.7383 212.02 97.9116 212.756C98.0272 213.246 98.1751 213.645 98.3554 213.951C98.5357 214.257 98.7402 214.465 98.9689 214.575C99.1994 214.684 99.447 214.69 99.7118 214.592ZM107.595 212.345C107.194 212.493 106.825 212.506 106.489 212.384C106.153 212.259 105.859 212.008 105.607 211.63C105.356 211.25 105.157 210.752 105.012 210.136C104.868 209.524 104.819 208.974 104.866 208.486C104.915 207.995 105.054 207.583 105.282 207.251C105.512 206.915 105.826 206.674 106.224 206.527C106.622 206.381 106.99 206.37 107.326 206.496C107.665 206.62 107.96 206.872 108.211 207.252C108.465 207.629 108.663 208.124 108.807 208.736C108.953 209.352 109.002 209.905 108.955 210.395C108.908 210.883 108.77 211.294 108.541 211.627C108.312 211.958 107.997 212.197 107.595 212.345ZM107.452 211.737C107.85 211.59 108.112 211.277 108.239 210.798C108.365 210.318 108.342 209.71 108.168 208.972C108.052 208.482 107.903 208.083 107.721 207.776C107.54 207.468 107.334 207.258 107.103 207.147C106.874 207.035 106.628 207.028 106.365 207.125C105.97 207.27 105.71 207.586 105.583 208.071C105.455 208.555 105.478 209.165 105.652 209.9C105.767 210.391 105.915 210.789 106.095 211.095C106.276 211.401 106.48 211.609 106.709 211.719C106.939 211.829 107.187 211.835 107.452 211.737ZM112.755 210.442C112.354 210.59 111.985 210.603 111.649 210.48C111.313 210.356 111.019 210.104 110.767 209.726C110.516 209.346 110.317 208.849 110.172 208.233C110.028 207.621 109.979 207.071 110.026 206.582C110.075 206.092 110.214 205.68 110.442 205.347C110.672 205.012 110.986 204.771 111.384 204.624C111.782 204.477 112.15 204.467 112.487 204.593C112.825 204.716 113.12 204.968 113.371 205.348C113.625 205.726 113.823 206.221 113.967 206.833C114.113 207.448 114.162 208.001 114.115 208.491C114.068 208.98 113.93 209.39 113.701 209.723C113.472 210.054 113.157 210.294 112.755 210.442ZM112.612 209.833C113.01 209.686 113.272 209.373 113.399 208.894C113.525 208.414 113.502 207.806 113.328 207.069C113.212 206.578 113.063 206.179 112.881 205.872C112.7 205.564 112.494 205.354 112.263 205.243C112.034 205.131 111.788 205.124 111.525 205.221C111.131 205.367 110.87 205.682 110.743 206.168C110.615 206.652 110.638 207.261 110.812 207.997C110.927 208.487 111.075 208.885 111.256 209.192C111.436 209.498 111.64 209.706 111.869 209.816C112.1 209.925 112.347 209.931 112.612 209.833ZM117.915 208.538C117.514 208.686 117.145 208.699 116.809 208.576C116.473 208.452 116.179 208.201 115.927 207.823C115.676 207.443 115.477 206.945 115.332 206.329C115.188 205.717 115.139 205.167 115.187 204.679C115.235 204.188 115.374 203.776 115.602 203.443C115.832 203.108 116.146 202.867 116.544 202.72C116.942 202.573 117.31 202.563 117.647 202.689C117.985 202.813 118.28 203.065 118.531 203.445C118.785 203.822 118.983 204.317 119.128 204.929C119.273 205.545 119.322 206.098 119.275 206.588C119.228 207.076 119.09 207.487 118.861 207.819C118.632 208.15 118.317 208.39 117.915 208.538ZM117.772 207.93C118.17 207.783 118.432 207.47 118.559 206.99C118.685 206.511 118.662 205.902 118.488 205.165C118.372 204.675 118.223 204.276 118.041 203.968C117.86 203.66 117.654 203.451 117.423 203.34C117.194 203.228 116.948 203.22 116.685 203.317C116.291 203.463 116.03 203.778 115.903 204.264C115.775 204.748 115.798 205.358 115.972 206.093C116.087 206.584 116.235 206.982 116.416 207.288C116.596 207.594 116.8 207.802 117.029 207.912C117.26 208.022 117.507 208.027 117.772 207.93ZM123.075 206.634C122.674 206.783 122.305 206.795 121.969 206.673C121.633 206.548 121.339 206.297 121.087 205.919C120.836 205.539 120.637 205.041 120.492 204.426C120.348 203.813 120.299 203.263 120.347 202.775C120.395 202.284 120.534 201.872 120.762 201.54C120.992 201.204 121.306 200.963 121.704 200.816C122.102 200.67 122.47 200.659 122.807 200.785C123.145 200.909 123.44 201.161 123.692 201.541C123.945 201.919 124.143 202.413 124.288 203.025C124.433 203.641 124.482 204.194 124.435 204.684C124.388 205.172 124.25 205.583 124.021 205.916C123.792 206.247 123.477 206.486 123.075 206.634ZM122.932 206.026C123.33 205.879 123.592 205.566 123.719 205.087C123.845 204.607 123.822 203.999 123.648 203.261C123.532 202.771 123.383 202.372 123.201 202.065C123.02 201.757 122.814 201.547 122.583 201.436C122.354 201.324 122.108 201.317 121.845 201.414C121.451 201.559 121.19 201.875 121.063 202.361C120.936 202.844 120.959 203.454 121.132 204.19C121.247 204.68 121.395 205.078 121.576 205.384C121.756 205.69 121.96 205.899 122.189 206.009C122.42 206.118 122.667 206.124 122.932 206.026ZM130.815 203.779C130.414 203.927 130.045 203.94 129.709 203.817C129.373 203.693 129.079 203.442 128.828 203.064C128.576 202.684 128.377 202.186 128.232 201.57C128.088 200.958 128.039 200.408 128.087 199.92C128.135 199.429 128.274 199.017 128.502 198.684C128.732 198.349 129.046 198.108 129.444 197.961C129.842 197.814 130.21 197.804 130.547 197.93C130.885 198.054 131.18 198.306 131.432 198.686C131.685 199.063 131.883 199.558 132.028 200.17C132.173 200.786 132.222 201.338 132.175 201.829C132.128 202.317 131.99 202.727 131.761 203.06C131.532 203.391 131.217 203.631 130.815 203.779ZM130.672 203.171C131.07 203.024 131.332 202.711 131.459 202.231C131.585 201.752 131.562 201.143 131.388 200.406C131.272 199.915 131.123 199.517 130.941 199.209C130.76 198.901 130.554 198.692 130.323 198.58C130.094 198.469 129.848 198.461 129.585 198.558C129.191 198.704 128.93 199.019 128.803 199.505C128.676 199.989 128.699 200.599 128.872 201.334C128.987 201.824 129.135 202.223 129.316 202.529C129.496 202.835 129.701 203.043 129.929 203.153C130.16 203.262 130.407 203.268 130.672 203.171ZM135.976 201.875C135.574 202.023 135.205 202.036 134.869 201.914C134.533 201.789 134.239 201.538 133.988 201.16C133.736 200.78 133.537 200.282 133.392 199.666C133.248 199.054 133.2 198.504 133.247 198.016C133.295 197.525 133.434 197.113 133.662 196.781C133.892 196.445 134.206 196.204 134.604 196.057C135.003 195.911 135.37 195.9 135.707 196.026C136.045 196.15 136.34 196.402 136.592 196.782C136.845 197.159 137.043 197.654 137.188 198.266C137.333 198.882 137.382 199.435 137.335 199.925C137.288 200.413 137.15 200.824 136.921 201.157C136.692 201.488 136.377 201.727 135.976 201.875ZM135.832 201.267C136.23 201.12 136.492 200.807 136.619 200.327C136.745 199.848 136.722 199.24 136.548 198.502C136.432 198.012 136.283 197.613 136.101 197.306C135.92 196.998 135.714 196.788 135.483 196.677C135.254 196.565 135.008 196.558 134.745 196.655C134.351 196.8 134.09 197.116 133.963 197.601C133.836 198.085 133.859 198.695 134.032 199.43C134.148 199.921 134.295 200.319 134.476 200.625C134.656 200.931 134.861 201.139 135.089 201.249C135.32 201.359 135.567 201.365 135.832 201.267ZM141.136 199.972C140.734 200.12 140.365 200.133 140.029 200.01C139.693 199.886 139.399 199.634 139.148 199.256C138.896 198.876 138.697 198.378 138.552 197.763C138.408 197.151 138.36 196.601 138.407 196.112C138.455 195.622 138.594 195.21 138.823 194.877C139.053 194.542 139.367 194.301 139.765 194.154C140.163 194.007 140.53 193.997 140.867 194.123C141.205 194.246 141.5 194.498 141.752 194.878C142.005 195.256 142.204 195.751 142.348 196.363C142.493 196.978 142.542 197.531 142.495 198.021C142.448 198.51 142.31 198.92 142.082 199.253C141.852 199.584 141.537 199.823 141.136 199.972ZM140.992 199.363C141.39 199.216 141.652 198.903 141.779 198.424C141.905 197.944 141.882 197.336 141.708 196.599C141.593 196.108 141.443 195.709 141.261 195.402C141.08 195.094 140.874 194.884 140.643 194.773C140.414 194.661 140.168 194.654 139.905 194.751C139.511 194.897 139.25 195.212 139.123 195.698C138.996 196.182 139.019 196.791 139.192 197.527C139.308 198.017 139.456 198.415 139.636 198.722C139.816 199.028 140.021 199.236 140.249 199.346C140.48 199.455 140.727 199.461 140.992 199.363ZM146.296 198.068C145.894 198.216 145.525 198.229 145.189 198.106C144.853 197.982 144.559 197.731 144.308 197.353C144.056 196.973 143.857 196.475 143.712 195.859C143.568 195.247 143.52 194.697 143.567 194.209C143.615 193.718 143.754 193.306 143.983 192.973C144.213 192.638 144.527 192.397 144.925 192.25C145.323 192.103 145.69 192.093 146.027 192.219C146.365 192.343 146.66 192.595 146.912 192.975C147.165 193.352 147.364 193.847 147.508 194.459C147.653 195.075 147.702 195.628 147.655 196.118C147.608 196.606 147.47 197.016 147.242 197.349C147.013 197.68 146.697 197.92 146.296 198.068ZM146.152 197.46C146.55 197.313 146.813 197 146.939 196.52C147.066 196.041 147.042 195.432 146.868 194.695C146.753 194.205 146.604 193.806 146.421 193.498C146.24 193.19 146.034 192.981 145.804 192.87C145.574 192.758 145.328 192.75 145.065 192.847C144.671 192.993 144.41 193.308 144.283 193.794C144.156 194.278 144.179 194.888 144.352 195.623C144.468 196.113 144.616 196.512 144.796 196.818C144.976 197.124 145.181 197.332 145.409 197.442C145.64 197.551 145.887 197.557 146.152 197.46Z" fill="white"/>
<path d="M228.24 43.8997L238.788 40.008L243.422 59.6726L232.874 63.5643L228.24 43.8997Z" fill="#FF5F00"/>
<path d="M228.073 76.0939L227.582 74.0093C227.394 73.2101 226.802 72.8621 225.998 73.1586C225.596 73.3069 225.194 73.6064 224.999 74.1693C224.674 73.8736 224.29 73.7887 223.788 73.974C223.453 74.0976 223.143 74.3252 222.965 74.8063L222.867 74.3894L222.163 74.6489L222.949 77.9841L223.653 77.7247L223.219 75.8833C223.08 75.2928 223.315 74.9035 223.784 74.7305C224.253 74.5576 224.561 74.7838 224.692 75.3396L225.126 77.1811L225.83 76.9216L225.396 75.0802C225.256 74.4897 225.526 74.0882 225.961 73.9275C226.43 73.7545 226.738 73.9808 226.869 74.5366L227.303 76.3781L228.073 76.0939ZM237.702 68.9164L236.564 69.3364L236.326 68.3289L235.623 68.5883L235.86 69.5958L235.224 69.8306L235.38 70.4905L236.016 70.2558L236.376 71.7847C236.556 72.5491 236.964 72.8894 237.768 72.5929C238.069 72.4817 238.379 72.2541 238.581 72.0286L238.233 71.4773C238.065 71.6903 237.838 71.8116 237.671 71.8734C237.336 71.9969 237.153 71.8379 237.071 71.4904L236.719 69.9963L237.858 69.5763L237.702 68.9164ZM243.647 66.6476C243.245 66.7958 243.026 67.1032 242.924 67.4429L242.826 67.0261L242.123 67.2855L242.909 70.6208L243.612 70.3614L243.17 68.4853C243.039 67.9294 243.199 67.5303 243.635 67.3697C243.769 67.3202 243.944 67.2933 244.087 67.2785L244.124 66.5096C243.982 66.5242 243.781 66.5983 243.647 66.6477L243.647 66.6476ZM234.72 70.3185C234.328 70.1988 233.835 70.2676 233.332 70.453C232.529 70.7494 232.091 71.364 232.247 72.0241C232.378 72.5801 232.853 72.7444 233.581 72.5893L233.924 72.5006C234.309 72.434 234.534 72.4641 234.575 72.6379C234.632 72.881 234.406 73.1536 233.937 73.3266C233.468 73.4996 233.058 73.4617 232.783 73.3746L232.579 74.0539C233.013 74.1959 233.548 74.1496 234.05 73.9643C234.988 73.6184 235.418 72.9691 235.27 72.3436C235.131 71.753 234.622 71.6009 233.928 71.7439L233.585 71.8326C233.275 71.909 233.024 71.9261 232.975 71.7177C232.918 71.4744 233.119 71.249 233.488 71.1131C233.89 70.9648 234.332 70.9902 234.558 71.0204L234.72 70.3185ZM253.325 63.0772C252.923 63.2255 252.704 63.5328 252.602 63.8725L252.504 63.4556L251.801 63.7151L252.587 67.0504L253.29 66.7909L252.848 64.9148C252.717 64.359 252.878 63.9598 253.313 63.7992C253.447 63.7497 253.623 63.7228 253.765 63.708L253.802 62.9391C253.66 62.9537 253.459 63.0278 253.325 63.0772ZM244.759 68.1254C244.997 69.1329 245.838 69.6155 246.877 69.2324C247.345 69.0595 247.656 68.8318 247.925 68.4304L247.451 67.9633C247.232 68.2705 246.989 68.4735 246.688 68.5847C246.118 68.7947 245.618 68.5261 245.463 67.866C245.315 67.2407 245.619 66.6754 246.18 66.4307C246.481 66.3195 246.774 66.3248 247.091 66.4346L247.286 65.7204C246.886 65.5659 246.527 65.5852 246.058 65.7582C245.02 66.1412 244.522 67.1179 244.759 68.1254ZM251.256 65.7286L250.863 64.061L250.16 64.3204L250.258 64.7373C249.95 64.5112 249.574 64.461 249.139 64.6216C248.235 64.9551 247.703 65.9442 247.941 66.9517C248.178 67.9592 249.053 68.4294 249.958 68.0958C250.426 67.9229 250.72 67.6257 250.848 67.2388L250.946 67.6557L251.649 67.3962L251.256 65.7286ZM248.677 66.6799C248.538 66.0893 248.792 65.467 249.395 65.2447C249.964 65.0346 250.473 65.338 250.62 65.9633C250.759 66.554 250.472 67.1886 249.902 67.3987C249.291 67.5862 248.817 67.2706 248.677 66.6799ZM239.863 68.0438C238.925 68.3897 238.419 69.3316 238.664 70.374C238.91 71.4163 239.743 71.864 240.715 71.5057C241.183 71.3328 241.62 71.0208 241.914 70.5723L241.457 70.1747C241.238 70.482 240.936 70.7445 240.601 70.868C240.166 71.0286 239.681 70.9808 239.441 70.4271L241.819 69.5499L241.754 69.2721C241.533 68.1826 240.767 67.7102 239.862 68.0438L239.863 68.0438ZM240.01 68.6691C240.445 68.5085 240.812 68.6753 241.002 69.1719L239.328 69.7896C239.288 69.3132 239.508 68.8544 240.01 68.6691ZM257.719 63.3442L257.015 60.3563L256.312 60.6157L256.721 62.3529C256.413 62.1268 256.037 62.0765 255.602 62.2372C254.698 62.5707 254.167 63.5598 254.404 64.5673C254.641 65.5748 255.517 66.045 256.421 65.7114C256.89 65.5384 257.184 65.2413 257.311 64.8544L257.409 65.2713L258.112 65.0118L257.719 63.3442ZM255.141 64.2955C255.002 63.7048 255.255 63.0826 255.858 62.8602C256.428 62.6502 256.936 62.9536 257.083 63.5789C257.222 64.1696 256.935 64.8042 256.366 65.0142C255.755 65.2018 255.28 64.8861 255.141 64.2955ZM231.632 72.9684L231.239 71.3008L230.536 71.5602L230.634 71.9771C230.326 71.751 229.95 71.7008 229.514 71.8614C228.61 72.195 228.079 73.184 228.316 74.1915C228.554 75.199 229.429 75.6692 230.333 75.3356C230.802 75.1626 231.096 74.8655 231.223 74.4786L231.322 74.8955L232.025 74.6361L231.632 72.9684ZM229.02 73.9321C228.88 73.3414 229.134 72.7192 229.737 72.4968C230.306 72.2868 230.815 72.5902 230.962 73.2155C231.101 73.8061 230.814 74.4408 230.245 74.6508C229.634 74.8384 229.159 74.5227 229.02 73.9321Z" fill="white"/>
<path d="M231.226 53.4851C230.285 49.4897 231.258 45.2787 233.497 41.9602C231.061 41.0461 228.245 40.9898 225.432 42.0276C218.768 44.4863 214.694 52.0689 216.324 58.9829C217.953 65.8967 224.663 69.5014 231.327 67.0428C234.14 66.005 236.481 64.0462 238.131 61.6248C234.819 60.3919 232.168 57.4805 231.226 53.4851Z" fill="#E51D37"/>
<path d="M255.338 44.5899C256.967 51.5037 252.893 59.0865 246.229 61.5451C243.416 62.5829 240.6 62.5267 238.164 61.6125C240.437 58.2818 241.377 54.0831 240.435 50.0877C239.494 46.0923 236.85 43.2156 233.53 41.9479C235.18 39.5266 237.521 37.5678 240.334 36.53C246.999 34.0714 253.717 37.7107 255.338 44.5899L255.338 44.5899Z" fill="#F79E1B"/>
<path d="M44.7987 118.749L47.8013 131.491L45.8223 132.221L37.99 125.676L37.8881 125.714L39.9333 134.393L37.7085 135.214L34.7058 122.472L36.6968 121.738L44.5246 128.29L44.6325 128.25L42.5858 119.565L44.7987 118.749ZM50.1297 130.632L47.8777 121.075L50.0486 120.274L52.3006 129.831L50.1297 130.632ZM48.6495 119.316C48.3057 119.443 47.982 119.434 47.6784 119.289C47.3738 119.14 47.1819 118.897 47.1028 118.561C47.0226 118.221 47.0786 117.887 47.2708 117.559C47.462 117.227 47.7295 116.998 48.0733 116.871C48.4211 116.743 48.7453 116.754 49.0459 116.905C49.3495 117.05 49.5413 117.292 49.6215 117.632C49.7007 117.968 49.6447 118.302 49.4535 118.634C49.2653 118.961 48.9973 119.188 48.6495 119.316ZM55.8053 125.278L55.1585 122.562L55.5064 122.433L57.9121 117.373L60.4488 116.437L57.4853 122.643L57.0355 122.809L55.8053 125.278ZM54.5329 129.007L51.5303 116.265L53.7012 115.464L56.7038 128.206L54.5329 129.007ZM60.314 126.874L56.2907 123.632L57.3801 121.505L62.9107 125.916L60.314 126.874ZM67.8302 124.304C66.9307 124.636 66.1027 124.719 65.3462 124.551C64.5898 124.384 63.9427 123.998 63.4049 123.394C62.8711 122.789 62.4879 121.992 62.2553 121.005C62.0226 120.018 61.9987 119.087 62.1836 118.212C62.3725 117.335 62.7483 116.57 63.3112 115.916C63.8741 115.262 64.6054 114.769 65.5049 114.437C66.4044 114.105 67.2324 114.023 67.9889 114.19C68.7453 114.357 69.3909 114.746 69.9257 115.356C70.4645 115.964 70.8502 116.761 71.0828 117.749C71.3154 118.736 71.3368 119.666 71.147 120.538C70.9611 121.409 70.5868 122.172 70.0239 122.826C69.461 123.48 68.7297 123.973 67.8302 124.304ZM67.417 122.496C67.9048 122.316 68.2798 122.026 68.5422 121.628C68.8035 121.225 68.9585 120.757 69.007 120.225C69.0594 119.692 69.0173 119.135 68.8804 118.554C68.7426 117.969 68.536 117.471 68.2607 117.059C67.9884 116.641 67.6551 116.351 67.2608 116.19C66.8665 116.029 66.4254 116.038 65.9377 116.218C65.4379 116.402 65.0554 116.697 64.79 117.101C64.5286 117.504 64.3722 117.975 64.3207 118.512C64.2722 119.044 64.3169 119.602 64.4547 120.187C64.5915 120.768 64.7956 121.265 65.067 121.679C65.3423 122.091 65.6771 122.378 66.0714 122.539C66.4687 122.695 66.9173 122.68 67.417 122.496ZM73.2108 108.267L76.2135 121.009L74.0426 121.81L71.0399 109.068L73.2108 108.267ZM81.1419 119.4C80.5582 119.616 80.0071 119.702 79.4885 119.659C78.9729 119.61 78.5289 119.422 78.1563 119.095C77.7878 118.767 77.5297 118.289 77.3821 117.663C77.2551 117.124 77.2459 116.643 77.3548 116.219C77.4636 115.796 77.659 115.417 77.941 115.083C78.223 114.749 78.5591 114.452 78.9495 114.19C79.3429 113.924 79.7576 113.683 80.1937 113.468C80.7197 113.211 81.1453 112.997 81.4704 112.828C81.7945 112.654 82.0207 112.489 82.1492 112.334C82.2807 112.173 82.321 111.984 82.2702 111.768L82.2614 111.731C82.1509 111.262 81.9315 110.949 81.603 110.791C81.2746 110.632 80.8584 110.646 80.3547 110.832C79.823 111.028 79.4295 111.304 79.1744 111.659C78.9232 112.014 78.7823 112.374 78.7516 112.742L76.6542 113.191C76.6773 112.551 76.8268 111.969 77.1027 111.443C77.3777 110.913 77.7581 110.453 78.2439 110.062C78.7287 109.667 79.2929 109.35 79.9366 109.113C80.3804 108.949 80.8348 108.84 81.3 108.786C81.7652 108.731 82.2091 108.761 82.6315 108.876C83.053 108.987 83.4235 109.213 83.7431 109.555C84.0667 109.895 84.3033 110.383 84.4528 111.017L85.96 117.413L83.8731 118.183L83.5637 116.87L83.4918 116.897C83.4224 117.211 83.2951 117.528 83.11 117.849C82.9278 118.164 82.6735 118.459 82.3469 118.733C82.0233 119.001 81.6217 119.223 81.1419 119.4ZM81.3156 117.537C81.7514 117.377 82.1082 117.148 82.386 116.852C82.6629 116.551 82.852 116.22 82.9536 115.858C83.0591 115.494 83.0703 115.136 82.9873 114.784L82.7219 113.658C82.6676 113.741 82.5644 113.837 82.4122 113.948C82.264 114.056 82.0944 114.166 81.9033 114.277C81.7121 114.389 81.5221 114.495 81.333 114.596C81.144 114.697 80.9799 114.785 80.8409 114.859C80.5278 115.024 80.2555 115.205 80.0241 115.403C79.7926 115.602 79.625 115.821 79.521 116.062C79.4161 116.3 79.3979 116.563 79.4663 116.854C79.564 117.268 79.7837 117.528 80.1254 117.632C80.4671 117.735 80.8639 117.704 81.3156 117.537ZM89.3413 104.419L88.8853 102.484L98.6844 98.8692L99.1404 100.804L95.3443 102.205L97.891 113.012L95.6841 113.826L93.1374 103.019L89.3413 104.419ZM106.266 110.125C105.343 110.465 104.498 110.561 103.733 110.41C102.97 110.254 102.323 109.875 101.79 109.274C101.256 108.668 100.871 107.866 100.636 106.866C100.404 105.883 100.381 104.954 100.566 104.079C100.753 103.198 101.124 102.43 101.678 101.775C102.231 101.116 102.947 100.624 103.827 100.299C104.395 100.09 104.953 99.9875 105.502 99.9925C106.053 99.9918 106.57 100.117 107.05 100.368C107.535 100.617 107.961 101.006 108.329 101.533C108.695 102.056 108.977 102.736 109.175 103.574L109.337 104.265L101.787 107.05L101.429 105.532L106.899 103.514C106.793 103.084 106.613 102.734 106.358 102.463C106.101 102.188 105.793 102.011 105.431 101.932C105.073 101.852 104.686 101.889 104.27 102.043C103.827 102.206 103.463 102.462 103.18 102.81C102.896 103.154 102.703 103.541 102.6 103.971C102.5 104.395 102.498 104.822 102.595 105.251L102.907 106.576C103.038 107.132 103.249 107.573 103.538 107.898C103.827 108.22 104.172 108.422 104.574 108.504C104.975 108.581 105.411 108.533 105.883 108.359C106.199 108.243 106.474 108.091 106.708 107.906C106.941 107.716 107.131 107.495 107.276 107.243C107.42 106.992 107.509 106.713 107.541 106.408L109.624 105.897C109.627 106.5 109.498 107.075 109.236 107.623C108.977 108.164 108.596 108.652 108.094 109.085C107.591 109.514 106.982 109.861 106.266 110.125ZM117.778 98.0331L115.852 98.9872C115.747 98.8004 115.603 98.6416 115.42 98.5107C115.241 98.3784 115.023 98.299 114.765 98.2725C114.506 98.2461 114.209 98.2948 113.873 98.4187C113.422 98.5854 113.066 98.8271 112.806 99.1439C112.55 99.4593 112.462 99.778 112.542 100.1C112.604 100.379 112.755 100.569 112.996 100.67C113.241 100.769 113.61 100.788 114.105 100.727L115.758 100.496C116.675 100.37 117.396 100.44 117.919 100.706C118.447 100.972 118.793 101.446 118.959 102.129C119.096 102.731 119.051 103.325 118.824 103.909C118.6 104.488 118.222 105.015 117.691 105.491C117.16 105.966 116.511 106.345 115.743 106.629C114.616 107.044 113.65 107.135 112.847 106.899C112.043 106.659 111.472 106.124 111.133 105.293L113.2 104.3C113.397 104.696 113.678 104.947 114.042 105.052C114.405 105.156 114.837 105.117 115.337 104.932C115.852 104.742 116.24 104.479 116.5 104.145C116.764 103.808 116.858 103.478 116.782 103.155C116.718 102.881 116.562 102.692 116.316 102.589C116.074 102.485 115.73 102.463 115.284 102.524L113.632 102.761C112.704 102.896 111.974 102.816 111.444 102.52C110.913 102.221 110.567 101.721 110.407 101.023C110.264 100.436 110.298 99.8687 110.508 99.3222C110.721 98.7702 111.08 98.2727 111.584 97.8298C112.091 97.3813 112.712 97.0213 113.448 96.7499C114.527 96.3517 115.433 96.2768 116.165 96.5252C116.901 96.7721 117.439 97.2747 117.778 98.0331ZM120.591 90.7873L123.594 103.529L121.423 104.33L118.42 91.5882L120.591 90.7873ZM128.522 101.921C127.939 102.136 127.388 102.222 126.869 102.179C126.353 102.13 125.909 101.942 125.537 101.616C125.168 101.287 124.91 100.81 124.763 100.183C124.636 99.6442 124.626 99.163 124.735 98.7396C124.844 98.3162 125.039 97.9376 125.321 97.6036C125.603 97.2697 125.94 96.9721 126.33 96.7109C126.723 96.444 127.138 96.2031 127.574 95.9881C128.1 95.7309 128.526 95.5176 128.851 95.3481C129.175 95.1744 129.401 95.0098 129.53 94.8542C129.661 94.693 129.702 94.5045 129.651 94.2888L129.642 94.2515C129.531 93.7828 129.312 93.4693 128.984 93.3109C128.655 93.1526 128.239 93.1663 127.735 93.3522C127.203 93.5484 126.81 93.8242 126.555 94.1799C126.304 94.534 126.163 94.8948 126.132 95.2623L124.035 95.7115C124.058 95.0718 124.207 94.4891 124.483 93.9636C124.758 93.4338 125.139 92.9734 125.624 92.5823C126.109 92.187 126.673 91.8707 127.317 91.6332C127.761 91.4695 128.215 91.3604 128.681 91.306C129.146 91.2516 129.59 91.2818 130.012 91.3964C130.433 91.5069 130.804 91.7331 131.124 92.0751C131.447 92.4156 131.684 92.9031 131.833 93.5377L133.341 99.9335L131.254 100.703L130.944 99.3907L130.872 99.4172C130.803 99.7314 130.676 100.049 130.49 100.37C130.308 100.685 130.054 100.979 129.727 101.253C129.404 101.521 129.002 101.744 128.522 101.921ZM128.696 100.058C129.132 99.897 129.489 99.6684 129.767 99.3721C130.043 99.0716 130.233 98.7403 130.334 98.3782C130.44 98.0147 130.451 97.6567 130.368 97.3041L130.102 96.178C130.048 96.2611 129.945 96.3578 129.793 96.4681C129.644 96.5768 129.475 96.6868 129.284 96.7978C129.093 96.9089 128.903 97.0151 128.714 97.1164C128.524 97.2177 128.36 97.3053 128.221 97.3791C127.908 97.5442 127.636 97.7258 127.405 97.9239C127.173 98.122 127.005 98.3416 126.902 98.5829C126.797 98.8199 126.778 99.0836 126.847 99.374C126.945 99.7888 127.164 100.048 127.506 100.152C127.848 100.256 128.244 100.224 128.696 100.058Z" fill="white"/>
<rect width="30.4955" height="20.3303" rx="5" transform="matrix(0.938191 -0.346117 0.22937 0.973339 44.2383 168.511)" fill="url(#paint2_radial_270506_7883)"/>
<path fill-rule="evenodd" clip-rule="evenodd" d="M58.5901 163.43L56.6298 169.774C56.6298 169.774 58.9677 173.83 58.6101 178.178L63.16 182.823L64.968 175.832C64.968 175.832 62.9347 173.069 62.9877 167.429C62.9877 167.429 58.5901 163.43 58.5901 163.43Z" stroke="#C7C7B6" stroke-width="1.3" stroke-linejoin="bevel"/>
<path d="M45.5594 174.117L56.6858 170.012" stroke="#C7C7B6" stroke-width="1.3" stroke-linejoin="bevel"/>
<path d="M62.7254 167.784L74.1697 163.562" stroke="#C7C7B6" stroke-width="1.3" stroke-linejoin="bevel"/>
<path d="M47.4244 182.032L58.5507 177.927" stroke="#C7C7B6" stroke-width="1.3" stroke-linejoin="bevel"/>
<path d="M64.5904 175.699L76.0347 171.477" stroke="#C7C7B6" stroke-width="1.3" stroke-linejoin="bevel"/>
<defs>
<linearGradient id="paint0_linear_270506_7883" x1="51.1923" y1="-26.8476" x2="81.7938" y2="211.511" gradientUnits="userSpaceOnUse">
<stop stop-color="#E23B51"/>
<stop offset="1" stop-color="#8A3B45"/>
</linearGradient>
<linearGradient id="paint1_linear_270506_7883" x1="51.1923" y1="-26.8477" x2="81.794" y2="211.511" gradientUnits="userSpaceOnUse">
<stop stop-color="#E23B51"/>
<stop offset="1" stop-color="#8A3B45"/>
</linearGradient>
<radialGradient id="paint2_radial_270506_7883" cx="0" cy="0" r="1" gradientUnits="userSpaceOnUse" gradientTransform="translate(17.5121 7.40565) rotate(141.302) scale(20.6722 20.5154)">
<stop stop-color="white"/>
<stop offset="1" stop-color="#DDDCDA"/>
</radialGradient>
</defs>
</svg>
