<svg width="35" height="36" viewBox="0 0 35 36" fill="none" xmlns="http://www.w3.org/2000/svg">
<g clip-path="url(#clip0_270506_7651)">
<path d="M17.5 2.3255V34.4088" stroke="#EB3850" stroke-width="2" stroke-linecap="round" stroke-linejoin="round"/>
<path d="M24.7917 8.15887H13.8542C12.5005 8.15887 11.2022 8.69663 10.245 9.65385C9.28776 10.6111 8.75 11.9093 8.75 13.263C8.75 14.6168 9.28776 15.915 10.245 16.8722C11.2022 17.8294 12.5005 18.3672 13.8542 18.3672H21.1458C22.4995 18.3672 23.7978 18.905 24.755 19.8622C25.7122 20.8194 26.25 22.1177 26.25 23.4714C26.25 24.8251 25.7122 26.1234 24.755 27.0806C23.7978 28.0378 22.4995 28.5755 21.1458 28.5755H8.75" stroke="#EB3850" stroke-width="2" stroke-linecap="round" stroke-linejoin="round"/>
</g>
<defs>
<clipPath id="clip0_270506_7651">
<rect width="35" height="35" fill="white" transform="translate(0 0.867188)"/>
</clipPath>
</defs>
</svg>
