<svg width="26" height="23" viewBox="0 0 26 23" fill="none" xmlns="http://www.w3.org/2000/svg">
<path d="M7.536 2.97015C7.2 2.97015 6.936 3.01815 6.744 3.11415C6.568 3.21015 6.44 3.42615 6.36 3.76215C6.296 4.09815 6.264 4.63415 6.264 5.37015V7.72215C6.264 8.33015 6.168 8.85815 5.976 9.30615C5.8 9.73815 5.592 10.0902 5.352 10.3622C5.112 10.6342 4.888 10.8422 4.68 10.9862C4.856 11.1142 5.064 11.3142 5.304 11.5862C5.56 11.8422 5.784 12.1622 5.976 12.5462C6.168 12.9142 6.264 13.3302 6.264 13.7942V16.6742C6.264 17.3942 6.296 17.9222 6.36 18.2582C6.44 18.5942 6.568 18.8102 6.744 18.9062C6.936 19.0022 7.2 19.0502 7.536 19.0502H8.424V21.9782H6.528C6.08 21.9782 5.632 21.9702 5.184 21.9542C4.752 21.9382 4.352 21.8502 3.984 21.6902C3.616 21.5462 3.32 21.2662 3.096 20.8502C2.888 20.4502 2.784 19.8662 2.784 19.0982V15.1382C2.784 14.6582 2.712 14.2102 2.568 13.7942C2.424 13.3622 2.208 13.0102 1.92 12.7382C1.632 12.4662 1.272 12.3302 0.84 12.3302V9.54615C1.272 9.53015 1.632 9.39415 1.92 9.13815C2.208 8.86615 2.424 8.52215 2.568 8.10615C2.712 7.67415 2.784 7.21815 2.784 6.73815V2.94615C2.784 2.17815 2.888 1.59415 3.096 1.19415C3.304 0.794151 3.584 0.514152 3.936 0.354152C4.304 0.194152 4.712 0.106152 5.16 0.0901508C5.608 0.0581512 6.064 0.0421515 6.528 0.0421515H8.424V2.97015H7.536ZM25.4295 11.2022C25.4295 12.8342 25.2295 14.3622 24.8295 15.7862C24.4455 17.2102 23.9495 18.4742 23.3415 19.5782C22.7335 20.6982 22.0855 21.6182 21.3975 22.3382L18.6375 21.0662C19.2615 20.3462 19.8215 19.4982 20.3175 18.5222C20.8135 17.5622 21.2055 16.4742 21.4935 15.2582C21.7815 14.0262 21.9255 12.6742 21.9255 11.2022C21.9255 9.73015 21.7815 8.38615 21.4935 7.17015C21.2055 5.93815 20.8135 4.84215 20.3175 3.88215C19.8215 2.90615 19.2615 2.06615 18.6375 1.36215L21.3975 0.0661511C22.0855 0.786151 22.7335 1.70615 23.3415 2.82615C23.9495 3.94615 24.4455 5.21815 24.8295 6.64215C25.2295 8.05015 25.4295 9.57015 25.4295 11.2022Z" fill="#EB3850"/>
</svg>
