<svg width="194" height="61" viewBox="0 0 194 61" fill="none" xmlns="http://www.w3.org/2000/svg">
<rect y="0.0334473" width="194" height="60" rx="5" fill="#333333"/>
<g clip-path="url(#clip0_270506_7790)">
<path d="M58.9719 27.874L32.7501 12.8709C32.3678 12.648 31.9332 12.5305 31.4907 12.5305C31.0482 12.5305 30.6136 12.648 30.2313 12.8709C29.8547 13.0868 29.5422 13.399 29.3259 13.7754C29.1095 14.1518 28.9971 14.5789 29.0001 15.0131V45.0537C28.9988 45.4874 29.1127 45.9137 29.3301 46.2889C29.5476 46.6642 29.8607 46.975 30.2376 47.1896C30.6198 47.4126 31.0544 47.53 31.4969 47.53C31.9395 47.53 32.374 47.4126 32.7563 47.1896L58.9719 32.1896C59.3591 31.9774 59.6821 31.665 59.9071 31.2851C60.1321 30.9052 60.2508 30.4718 60.2508 30.0303C60.2508 29.5887 60.1321 29.1553 59.9071 28.7754C59.6821 28.3955 59.3591 28.0831 58.9719 27.8709V27.874ZM46.5001 31.8006L49.4563 34.7568L35.6282 42.6725L46.5001 31.8006ZM35.6251 17.3928L49.4579 25.31L46.5001 28.2662L35.6251 17.3928ZM51.7047 33.4709L48.2672 30.0334L51.7047 26.5959L57.7094 30.0334L51.7047 33.4709Z" fill="white"/>
</g>
<path d="M77.288 13.8354H79.542C80.942 13.8354 82.006 14.2321 82.734 15.0254C83.4713 15.8188 83.84 16.9434 83.84 18.3994C83.84 19.8554 83.4713 20.9941 82.734 21.8154C82.006 22.6274 80.956 23.0334 79.584 23.0334H77.288V13.8354ZM79.458 22.1794C80.5593 22.1794 81.3853 21.8528 81.936 21.1994C82.496 20.5368 82.776 19.6034 82.776 18.3994C82.776 17.2141 82.496 16.2994 81.936 15.6554C81.3853 15.0114 80.5593 14.6894 79.458 14.6894H78.324V22.1794H79.458ZM88.3659 23.2014C87.8059 23.2014 87.2879 23.0614 86.8119 22.7814C86.3359 22.4921 85.9533 22.0814 85.6639 21.5494C85.3839 21.0081 85.2439 20.3734 85.2439 19.6454C85.2439 18.9174 85.3839 18.2828 85.6639 17.7414C85.9533 17.2001 86.3359 16.7894 86.8119 16.5094C87.2879 16.2201 87.8059 16.0754 88.3659 16.0754C88.9259 16.0754 89.4439 16.2201 89.9199 16.5094C90.3959 16.7894 90.7739 17.2001 91.0539 17.7414C91.3433 18.2828 91.4879 18.9174 91.4879 19.6454C91.4879 20.3734 91.3433 21.0081 91.0539 21.5494C90.7739 22.0814 90.3959 22.4921 89.9199 22.7814C89.4439 23.0614 88.9259 23.2014 88.3659 23.2014ZM88.3659 22.3474C88.7673 22.3474 89.1219 22.2354 89.4299 22.0114C89.7473 21.7874 89.9946 21.4701 90.1719 21.0594C90.3493 20.6488 90.4379 20.1774 90.4379 19.6454C90.4379 19.1134 90.3493 18.6421 90.1719 18.2314C89.9946 17.8208 89.7473 17.5034 89.4299 17.2794C89.1219 17.0461 88.7673 16.9294 88.3659 16.9294C87.9646 16.9294 87.6053 17.0461 87.2879 17.2794C86.9799 17.5034 86.7373 17.8208 86.5599 18.2314C86.3919 18.6421 86.3079 19.1134 86.3079 19.6454C86.3079 20.4574 86.4993 21.1108 86.8819 21.6054C87.2646 22.1001 87.7593 22.3474 88.3659 22.3474ZM92.4415 16.2434H93.4915L94.5555 20.2894L94.6815 20.8914C94.8121 21.4514 94.9055 21.8761 94.9615 22.1654H95.0175C95.1948 21.4374 95.3535 20.8121 95.4935 20.2894L96.5855 16.2434H97.6075L98.7135 20.2894L99.1895 22.1654H99.2455L99.6935 20.2894L100.729 16.2434H101.709L99.8615 23.0334H98.6015L97.5655 19.2394L97.2995 18.1334C97.2808 18.0588 97.2155 17.7788 97.1035 17.2934H97.0475C96.8421 18.2174 96.6788 18.8754 96.5575 19.2674L95.5495 23.0334H94.3595L92.4415 16.2434ZM103.235 16.2434H104.075L104.159 17.2514H104.201C104.574 16.8781 104.938 16.5888 105.293 16.3834C105.657 16.1781 106.054 16.0754 106.483 16.0754C107.192 16.0754 107.715 16.2994 108.051 16.7474C108.387 17.1861 108.555 17.8441 108.555 18.7214V23.0334H107.533V18.8474C107.533 18.1941 107.426 17.7181 107.211 17.4194C107.006 17.1208 106.665 16.9714 106.189 16.9714C105.853 16.9714 105.54 17.0601 105.251 17.2374C104.962 17.4054 104.626 17.6808 104.243 18.0634V23.0334H103.235V16.2434ZM111.942 23.2014C111.56 23.2014 111.28 23.0848 111.102 22.8514C110.925 22.6088 110.836 22.2541 110.836 21.7874V13.0374H111.844V21.8714C111.844 22.0301 111.872 22.1514 111.928 22.2354C111.994 22.3101 112.073 22.3474 112.166 22.3474C112.241 22.3474 112.325 22.3381 112.418 22.3194L112.558 23.1034C112.381 23.1688 112.176 23.2014 111.942 23.2014ZM116.926 23.2014C116.366 23.2014 115.848 23.0614 115.372 22.7814C114.896 22.4921 114.514 22.0814 114.224 21.5494C113.944 21.0081 113.804 20.3734 113.804 19.6454C113.804 18.9174 113.944 18.2828 114.224 17.7414C114.514 17.2001 114.896 16.7894 115.372 16.5094C115.848 16.2201 116.366 16.0754 116.926 16.0754C117.486 16.0754 118.004 16.2201 118.48 16.5094C118.956 16.7894 119.334 17.2001 119.614 17.7414C119.904 18.2828 120.048 18.9174 120.048 19.6454C120.048 20.3734 119.904 21.0081 119.614 21.5494C119.334 22.0814 118.956 22.4921 118.48 22.7814C118.004 23.0614 117.486 23.2014 116.926 23.2014ZM116.926 22.3474C117.328 22.3474 117.682 22.2354 117.99 22.0114C118.308 21.7874 118.555 21.4701 118.732 21.0594C118.91 20.6488 118.998 20.1774 118.998 19.6454C118.998 19.1134 118.91 18.6421 118.732 18.2314C118.555 17.8208 118.308 17.5034 117.99 17.2794C117.682 17.0461 117.328 16.9294 116.926 16.9294C116.525 16.9294 116.166 17.0461 115.848 17.2794C115.54 17.5034 115.298 17.8208 115.12 18.2314C114.952 18.6421 114.868 19.1134 114.868 19.6454C114.868 20.4574 115.06 21.1108 115.442 21.6054C115.825 22.1001 116.32 22.3474 116.926 22.3474ZM123.246 23.2014C122.667 23.2014 122.191 23.0334 121.818 22.6974C121.444 22.3614 121.258 21.8901 121.258 21.2834C121.258 20.5461 121.594 19.9814 122.266 19.5894C122.938 19.1881 124.011 18.9081 125.486 18.7494C125.486 18.2174 125.374 17.7834 125.15 17.4474C124.935 17.1021 124.562 16.9294 124.03 16.9294C123.386 16.9294 122.7 17.1768 121.972 17.6714L121.566 16.9714C122.462 16.3741 123.339 16.0754 124.198 16.0754C124.982 16.0754 125.56 16.3228 125.934 16.8174C126.307 17.3028 126.494 17.9748 126.494 18.8334V23.0334H125.654L125.57 22.2074H125.528C124.725 22.8701 123.964 23.2014 123.246 23.2014ZM123.512 22.3754C123.838 22.3754 124.156 22.3008 124.464 22.1514C124.781 21.9928 125.122 21.7501 125.486 21.4234V19.4354C124.319 19.5754 123.488 19.7901 122.994 20.0794C122.508 20.3688 122.266 20.7514 122.266 21.2274C122.266 21.6101 122.382 21.8994 122.616 22.0954C122.849 22.2821 123.148 22.3754 123.512 22.3754ZM131.001 23.2014C130.143 23.2014 129.461 22.8888 128.957 22.2634C128.463 21.6381 128.215 20.7654 128.215 19.6454C128.215 18.9361 128.351 18.3108 128.621 17.7694C128.892 17.2281 129.251 16.8128 129.699 16.5234C130.157 16.2248 130.647 16.0754 131.169 16.0754C131.533 16.0754 131.86 16.1408 132.149 16.2714C132.439 16.4021 132.756 16.6028 133.101 16.8734L133.059 15.6974V13.0374H134.067V23.0334H133.227L133.143 22.2074H133.101C132.812 22.5061 132.485 22.7488 132.121 22.9354C131.767 23.1128 131.393 23.2014 131.001 23.2014ZM131.225 22.3334C131.552 22.3334 131.86 22.2541 132.149 22.0954C132.448 21.9368 132.751 21.6941 133.059 21.3674V17.6854C132.761 17.4241 132.471 17.2374 132.191 17.1254C131.911 17.0041 131.622 16.9434 131.323 16.9434C130.941 16.9434 130.591 17.0601 130.273 17.2934C129.965 17.5268 129.718 17.8488 129.531 18.2594C129.354 18.6701 129.265 19.1321 129.265 19.6454C129.265 20.4854 129.433 21.1434 129.769 21.6194C130.115 22.0954 130.6 22.3334 131.225 22.3334ZM138.225 16.2434H139.275L140.619 20.2054L141.263 22.1934H141.319L141.963 20.2054L143.307 16.2434H144.315L141.879 23.0334H140.703L138.225 16.2434ZM145.672 16.2434H146.68V23.0334H145.672V16.2434ZM146.19 14.7874C145.985 14.7874 145.817 14.7221 145.686 14.5914C145.556 14.4608 145.49 14.2881 145.49 14.0734C145.49 13.8681 145.556 13.7048 145.686 13.5834C145.817 13.4528 145.985 13.3874 146.19 13.3874C146.396 13.3874 146.564 13.4528 146.694 13.5834C146.825 13.7048 146.89 13.8681 146.89 14.0734C146.89 14.2881 146.825 14.4608 146.694 14.5914C146.564 14.7221 146.396 14.7874 146.19 14.7874ZM150.603 23.2014C150.024 23.2014 149.548 23.0334 149.175 22.6974C148.802 22.3614 148.615 21.8901 148.615 21.2834C148.615 20.5461 148.951 19.9814 149.623 19.5894C150.295 19.1881 151.368 18.9081 152.843 18.7494C152.843 18.2174 152.731 17.7834 152.507 17.4474C152.292 17.1021 151.919 16.9294 151.387 16.9294C150.743 16.9294 150.057 17.1768 149.329 17.6714L148.923 16.9714C149.819 16.3741 150.696 16.0754 151.555 16.0754C152.339 16.0754 152.918 16.3228 153.291 16.8174C153.664 17.3028 153.851 17.9748 153.851 18.8334V23.0334H153.011L152.927 22.2074H152.885C152.082 22.8701 151.322 23.2014 150.603 23.2014ZM150.869 22.3754C151.196 22.3754 151.513 22.3008 151.821 22.1514C152.138 21.9928 152.479 21.7501 152.843 21.4234V19.4354C151.676 19.5754 150.846 19.7901 150.351 20.0794C149.866 20.3688 149.623 20.7514 149.623 21.2274C149.623 21.6101 149.74 21.8994 149.973 22.0954C150.206 22.2821 150.505 22.3754 150.869 22.3754Z" fill="white"/>
<path d="M82.534 46.2494C81.442 46.2494 80.464 46.0154 79.6 45.5474C78.748 45.0794 78.076 44.3954 77.584 43.4954C77.092 42.5834 76.846 41.4914 76.846 40.2194C76.846 38.9594 77.098 37.8674 77.602 36.9434C78.106 36.0074 78.784 35.2934 79.636 34.8014C80.5 34.3094 81.46 34.0634 82.516 34.0634C83.944 34.0634 85.162 34.5674 86.17 35.5754L84.874 37.1594C84.538 36.8474 84.19 36.6134 83.83 36.4574C83.482 36.2894 83.074 36.2054 82.606 36.2054C81.634 36.2054 80.854 36.5594 80.266 37.2674C79.678 37.9634 79.384 38.9174 79.384 40.1294C79.384 41.4014 79.672 42.3854 80.248 43.0814C80.824 43.7654 81.67 44.1074 82.786 44.1074C83.05 44.1074 83.308 44.0714 83.56 43.9994C83.812 43.9274 84.016 43.8314 84.172 43.7114V41.5154H82.138V39.4994H86.368V44.8274C85.936 45.2474 85.384 45.5894 84.712 45.8534C84.04 46.1174 83.314 46.2494 82.534 46.2494ZM92.4118 46.2494C91.6438 46.2494 90.9298 46.0634 90.2698 45.6914C89.6218 45.3194 89.0998 44.7794 88.7038 44.0714C88.3078 43.3634 88.1098 42.5354 88.1098 41.5874C88.1098 40.6274 88.3078 39.7934 88.7038 39.0854C89.0998 38.3774 89.6218 37.8374 90.2698 37.4654C90.9298 37.0934 91.6438 36.9074 92.4118 36.9074C93.1678 36.9074 93.8758 37.0934 94.5358 37.4654C95.1958 37.8374 95.7238 38.3834 96.1198 39.1034C96.5158 39.8114 96.7138 40.6394 96.7138 41.5874C96.7138 42.5354 96.5158 43.3634 96.1198 44.0714C95.7238 44.7794 95.1958 45.3194 94.5358 45.6914C93.8758 46.0634 93.1678 46.2494 92.4118 46.2494ZM92.4118 44.2514C92.9758 44.2514 93.4138 44.0174 93.7258 43.5494C94.0378 43.0694 94.1938 42.4154 94.1938 41.5874C94.1938 40.7594 94.0378 40.1054 93.7258 39.6254C93.4138 39.1454 92.9758 38.9054 92.4118 38.9054C91.8358 38.9054 91.3918 39.1454 91.0798 39.6254C90.7798 40.1054 90.6298 40.7594 90.6298 41.5874C90.6298 42.4154 90.7798 43.0694 91.0798 43.5494C91.3918 44.0174 91.8358 44.2514 92.4118 44.2514ZM102.361 46.2494C101.593 46.2494 100.879 46.0634 100.219 45.6914C99.571 45.3194 99.049 44.7794 98.653 44.0714C98.257 43.3634 98.059 42.5354 98.059 41.5874C98.059 40.6274 98.257 39.7934 98.653 39.0854C99.049 38.3774 99.571 37.8374 100.219 37.4654C100.879 37.0934 101.593 36.9074 102.361 36.9074C103.117 36.9074 103.825 37.0934 104.485 37.4654C105.145 37.8374 105.673 38.3834 106.069 39.1034C106.465 39.8114 106.663 40.6394 106.663 41.5874C106.663 42.5354 106.465 43.3634 106.069 44.0714C105.673 44.7794 105.145 45.3194 104.485 45.6914C103.825 46.0634 103.117 46.2494 102.361 46.2494ZM102.361 44.2514C102.925 44.2514 103.363 44.0174 103.675 43.5494C103.987 43.0694 104.143 42.4154 104.143 41.5874C104.143 40.7594 103.987 40.1054 103.675 39.6254C103.363 39.1454 102.925 38.9054 102.361 38.9054C101.785 38.9054 101.341 39.1454 101.029 39.6254C100.729 40.1054 100.579 40.7594 100.579 41.5874C100.579 42.4154 100.729 43.0694 101.029 43.5494C101.341 44.0174 101.785 44.2514 102.361 44.2514ZM111.698 49.8674C110.594 49.8674 109.694 49.6754 108.998 49.2914C108.314 48.9074 107.972 48.3434 107.972 47.5994C107.972 46.8554 108.398 46.2434 109.25 45.7634V45.6914C108.71 45.3434 108.44 44.8394 108.44 44.1794C108.44 43.8674 108.53 43.5614 108.71 43.2614C108.902 42.9614 109.142 42.7154 109.43 42.5234V42.4514C109.082 42.2114 108.794 41.8874 108.566 41.4794C108.35 41.0714 108.242 40.6214 108.242 40.1294C108.242 39.4574 108.404 38.8814 108.728 38.4014C109.064 37.9094 109.508 37.5374 110.06 37.2854C110.612 37.0334 111.212 36.9074 111.86 36.9074C112.316 36.9074 112.772 36.9794 113.228 37.1234H116.45V38.9234H114.956C115.064 39.0674 115.154 39.2594 115.226 39.4994C115.298 39.7274 115.334 39.9614 115.334 40.2014C115.334 41.1734 115.01 41.9174 114.362 42.4334C113.714 42.9494 112.88 43.2074 111.86 43.2074C111.488 43.2074 111.116 43.1474 110.744 43.0274C110.624 43.1354 110.534 43.2434 110.474 43.3514C110.414 43.4474 110.384 43.5794 110.384 43.7474C110.384 43.9754 110.486 44.1494 110.69 44.2694C110.906 44.3894 111.26 44.4494 111.752 44.4494H113.246C114.35 44.4494 115.184 44.6294 115.748 44.9894C116.312 45.3494 116.594 45.9194 116.594 46.6994C116.594 47.2994 116.39 47.8394 115.982 48.3194C115.586 48.8114 115.016 49.1894 114.272 49.4534C113.54 49.7294 112.682 49.8674 111.698 49.8674ZM111.86 41.7134C112.256 41.7134 112.574 41.5754 112.814 41.2994C113.066 41.0234 113.192 40.6334 113.192 40.1294C113.192 39.6374 113.066 39.2594 112.814 38.9954C112.574 38.7194 112.256 38.5814 111.86 38.5814C111.464 38.5814 111.146 38.7194 110.906 38.9954C110.666 39.2594 110.546 39.6374 110.546 40.1294C110.546 40.6214 110.666 41.0114 110.906 41.2994C111.158 41.5754 111.476 41.7134 111.86 41.7134ZM112.076 48.3194C112.7 48.3194 113.216 48.1994 113.624 47.9594C114.032 47.7314 114.236 47.4494 114.236 47.1134C114.236 46.8254 114.122 46.6274 113.894 46.5194C113.666 46.4114 113.306 46.3574 112.814 46.3574H111.788C111.26 46.3574 110.852 46.3154 110.564 46.2314C110.192 46.5314 110.006 46.8554 110.006 47.2034C110.006 47.5634 110.192 47.8394 110.564 48.0314C110.936 48.2234 111.44 48.3194 112.076 48.3194ZM120.379 46.2494C119.575 46.2494 118.993 46.0034 118.633 45.5114C118.273 45.0194 118.093 44.3234 118.093 43.4234V33.3794H120.541V43.5314C120.541 43.7834 120.589 43.9694 120.685 44.0894C120.781 44.1974 120.889 44.2514 121.009 44.2514C121.129 44.2514 121.237 44.2394 121.333 44.2154L121.639 46.0514C121.291 46.1834 120.871 46.2494 120.379 46.2494ZM130.536 41.1734C130.536 41.6294 130.5 42.0014 130.428 42.2894H124.92C125.04 42.9974 125.328 43.5194 125.784 43.8554C126.252 44.1914 126.792 44.3594 127.404 44.3594C128.04 44.3594 128.7 44.1614 129.384 43.7654L130.194 45.2594C129.75 45.5714 129.252 45.8174 128.7 45.9974C128.16 46.1654 127.62 46.2494 127.08 46.2494C126.24 46.2494 125.478 46.0634 124.794 45.6914C124.122 45.3194 123.588 44.7794 123.192 44.0714C122.808 43.3634 122.616 42.5354 122.616 41.5874C122.616 40.6514 122.808 39.8294 123.192 39.1214C123.588 38.4134 124.104 37.8674 124.74 37.4834C125.376 37.0994 126.054 36.9074 126.774 36.9074C127.986 36.9074 128.916 37.3034 129.564 38.0954C130.212 38.8754 130.536 39.9014 130.536 41.1734ZM128.43 40.6514C128.43 40.0754 128.298 39.6254 128.034 39.3014C127.77 38.9654 127.368 38.7974 126.828 38.7974C126.384 38.7974 125.988 38.9534 125.64 39.2654C125.304 39.5654 125.076 40.0274 124.956 40.6514H128.43ZM136.203 34.2794H140.127C141.543 34.2794 142.665 34.5734 143.493 35.1614C144.333 35.7374 144.753 36.6854 144.753 38.0054C144.753 39.3014 144.327 40.2794 143.475 40.9394C142.623 41.5994 141.531 41.9294 140.199 41.9294H138.669V46.0334H136.203V34.2794ZM140.037 39.9674C141.573 39.9674 142.341 39.3134 142.341 38.0054C142.341 37.3814 142.143 36.9314 141.747 36.6554C141.363 36.3794 140.769 36.2414 139.965 36.2414H138.669V39.9674H140.037ZM148.944 46.2494C148.14 46.2494 147.558 46.0034 147.198 45.5114C146.838 45.0194 146.658 44.3234 146.658 43.4234V33.3794H149.106V43.5314C149.106 43.7834 149.154 43.9694 149.25 44.0894C149.346 44.1974 149.454 44.2514 149.574 44.2514C149.694 44.2514 149.802 44.2394 149.898 44.2154L150.204 46.0514C149.856 46.1834 149.436 46.2494 148.944 46.2494ZM153.934 46.2494C153.142 46.2494 152.5 45.9974 152.008 45.4934C151.528 44.9894 151.288 44.3534 151.288 43.5854C151.288 42.6374 151.69 41.9054 152.494 41.3894C153.298 40.8614 154.588 40.5014 156.364 40.3094C156.328 39.3494 155.836 38.8694 154.888 38.8694C154.516 38.8694 154.138 38.9414 153.754 39.0854C153.37 39.2294 152.95 39.4334 152.494 39.6974L151.612 38.0774C152.872 37.2974 154.12 36.9074 155.356 36.9074C156.496 36.9074 157.36 37.2434 157.948 37.9154C158.536 38.5754 158.83 39.5654 158.83 40.8854V46.0334H156.814L156.634 45.0974H156.58C155.692 45.8654 154.81 46.2494 153.934 46.2494ZM154.744 44.3414C155.044 44.3414 155.314 44.2754 155.554 44.1434C155.806 43.9994 156.076 43.7894 156.364 43.5134V41.8034C155.392 41.9354 154.696 42.1334 154.276 42.3974C153.856 42.6614 153.646 42.9914 153.646 43.3874C153.646 43.6994 153.742 43.9394 153.934 44.1074C154.126 44.2634 154.396 44.3414 154.744 44.3414ZM162.024 49.5794C161.592 49.5794 161.178 49.5194 160.782 49.3994L161.232 47.5094C161.484 47.5934 161.688 47.6354 161.844 47.6354C162.636 47.6354 163.176 47.2034 163.464 46.3394L163.608 45.8354L160.152 37.1234H162.636L163.986 41.1374C164.13 41.5574 164.298 42.1154 164.49 42.8114C164.574 43.1354 164.652 43.4174 164.724 43.6574H164.796C164.952 42.9734 165.162 42.1334 165.426 41.1374L166.596 37.1234H168.954L165.822 46.2314C165.39 47.3834 164.892 48.2294 164.328 48.7694C163.764 49.3094 162.996 49.5794 162.024 49.5794Z" fill="white"/>
<defs>
<clipPath id="clip0_270506_7790">
<rect width="40" height="40" fill="white" transform="translate(24 10.0334)"/>
</clipPath>
</defs>
</svg>
