<svg width="371" height="373" viewBox="0 0 371 373" fill="none" xmlns="http://www.w3.org/2000/svg">
<rect x="0.318359" y="0.0334473" width="370.682" height="372.273" rx="80" fill="#EB3850"/>
<g filter="url(#filter0_dd_270506_7798)">
<path fill-rule="evenodd" clip-rule="evenodd" d="M170.25 265.867C171.688 266.887 173.524 267.306 175.58 267.306H195.882C198.402 267.306 200.593 266.677 202.123 265.082C203.639 263.504 204.157 261.341 204.157 259.054V159.598C204.731 155.346 207.01 150.992 210.403 147.513C214.343 143.472 219.575 140.828 224.9 140.828H252V121.142C252 119.809 251.399 118.075 250.413 116.365C249.388 114.587 247.83 112.626 245.658 110.842C241.279 107.243 234.491 104.429 224.753 105.145C208.516 106.34 195.168 112.121 185.425 120.024C175.724 112.329 162.543 106.724 146.565 105.551C136.829 104.836 130.041 107.644 125.662 111.236C123.49 113.017 121.932 114.974 120.907 116.749C119.92 118.456 119.318 120.188 119.318 121.52V141.171H146.419C151.746 141.171 156.978 143.811 160.918 147.843C164.313 151.317 166.592 155.665 167.164 159.908V258.947C167.164 261.237 167.681 263.402 169.196 264.982C169.519 265.319 169.871 265.613 170.25 265.867ZM248 121.142C248 120.817 247.777 119.801 246.947 118.363C246.157 116.991 244.909 115.404 243.118 113.932C239.573 111.019 233.812 108.49 225.047 109.135C209.837 110.253 197.521 115.537 188.524 122.659C197.198 130.564 202.51 140.198 203.832 149.408C204.895 147.727 206.146 146.148 207.539 144.72C212.05 140.094 218.261 136.828 224.9 136.828H248V121.142ZM167.417 149.617C166.369 147.98 165.142 146.442 163.779 145.048C159.268 140.431 153.057 137.171 146.419 137.171H123.318V121.52C123.318 121.197 123.541 120.185 124.37 118.749C125.16 117.382 126.408 115.797 128.198 114.329C131.744 111.421 137.506 108.897 146.273 109.54C161.237 110.639 173.399 115.76 182.356 122.692C173.778 130.689 168.588 140.388 167.417 149.617ZM172.518 262.57C172.406 262.486 172.308 262.4 172.224 262.312C171.71 261.776 171.305 260.813 171.305 259.054V161.971C171.305 161.197 171.257 160.422 171.164 159.65V153.567C171.164 144.396 176.134 133.827 185.455 125.275C195.041 133.875 200.157 144.597 200.157 153.881V159.34C200.063 160.116 200.015 160.895 200.015 161.673V258.947C200.015 260.71 199.61 261.677 199.094 262.215C198.595 262.736 197.648 263.211 195.74 263.211H175.439C173.98 263.211 173.083 262.933 172.518 262.57Z" fill="white"/>
</g>
<defs>
<filter id="filter0_dd_270506_7798" x="109.318" y="105.033" width="152.682" height="182.273" filterUnits="userSpaceOnUse" color-interpolation-filters="sRGB">
<feFlood flood-opacity="0" result="BackgroundImageFix"/>
<feColorMatrix in="SourceAlpha" type="matrix" values="0 0 0 0 0 0 0 0 0 0 0 0 0 0 0 0 0 0 127 0" result="hardAlpha"/>
<feOffset dy="10"/>
<feGaussianBlur stdDeviation="5"/>
<feComposite in2="hardAlpha" operator="out"/>
<feColorMatrix type="matrix" values="0 0 0 0 0.65098 0 0 0 0 0.65098 0 0 0 0 0.654902 0 0 0 0.3 0"/>
<feBlend mode="normal" in2="BackgroundImageFix" result="effect1_dropShadow_270506_7798"/>
<feColorMatrix in="SourceAlpha" type="matrix" values="0 0 0 0 0 0 0 0 0 0 0 0 0 0 0 0 0 0 127 0" result="hardAlpha"/>
<feOffset dy="4"/>
<feGaussianBlur stdDeviation="2"/>
<feComposite in2="hardAlpha" operator="out"/>
<feColorMatrix type="matrix" values="0 0 0 0 0 0 0 0 0 0 0 0 0 0 0 0 0 0 0.25 0"/>
<feBlend mode="normal" in2="effect1_dropShadow_270506_7798" result="effect2_dropShadow_270506_7798"/>
<feBlend mode="normal" in="SourceGraphic" in2="effect2_dropShadow_270506_7798" result="shape"/>
</filter>
</defs>
</svg>
