<svg width="39" height="48" viewBox="0 0 39 48" fill="none" xmlns="http://www.w3.org/2000/svg">
<path fill-rule="evenodd" clip-rule="evenodd" d="M36.4906 5.06608L36.4905 5.06589C36.4867 5.04303 36.4499 4.82327 36.2444 4.45773C36.0435 4.10018 35.7211 3.6776 35.2533 3.28337C34.3365 2.51064 32.8161 1.80896 30.4406 1.98817C26.4112 2.29214 23.1302 3.66972 20.6832 5.53984C22.7121 7.54428 24.0623 9.89271 24.6198 12.2227C24.7781 12.0243 24.9448 11.8332 25.1186 11.6504C26.458 10.2417 28.3293 9.21736 30.3654 9.21736H36.4909V5.06781C36.4909 5.06806 36.4908 5.06748 36.4906 5.06608ZM14.5971 47.5446C15.1002 47.9084 15.7226 48.0429 16.3641 48.0429H22.1276C22.9159 48.0429 23.6752 47.8397 24.2199 47.2579C24.7524 46.6891 24.909 45.9382 24.909 45.2227V16.2915C25.0646 15.1605 25.6616 13.9817 26.568 13.0285C27.6278 11.9139 29.0048 11.2174 30.3654 11.2174H37.4909H38.4909V10.2174V5.06781C38.4909 4.58086 38.2839 4.00443 37.9879 3.47776C37.6735 2.91848 37.1993 2.3079 36.5423 1.7541C35.2095 0.630749 33.1671 -0.223203 30.2902 -0.00616698C25.7473 0.33654 21.9677 1.95604 19.1558 4.19921C16.3585 2.01735 12.6286 0.448256 8.16082 0.111886C5.28437 -0.104678 3.24232 0.747361 1.90943 1.86853C1.25229 2.42129 0.777969 3.0308 0.46345 3.58925C0.16735 4.11499 -0.039978 4.69091 -0.039978 5.17788V10.3173V11.3173H0.960022H8.08574C9.44711 11.3173 10.8244 12.0128 11.884 13.125C12.7907 14.0768 13.3875 15.2534 13.5426 16.3818V45.1913C13.5426 45.9075 13.699 46.659 14.231 47.2285C14.3443 47.3497 14.4669 47.4546 14.5971 47.5446ZM13.7975 12.2752C13.6491 12.092 13.4937 11.9151 13.332 11.7455C11.9923 10.3393 10.1211 9.31733 8.08574 9.31733H1.96002V5.17788C1.96002 5.17824 1.96016 5.17747 1.96048 5.17557L1.96048 5.17556C1.96479 5.15059 2.00236 4.93241 2.20608 4.5707C2.40691 4.21411 2.72915 3.79249 3.19686 3.39907C4.11367 2.62788 5.63448 1.92734 8.01067 2.10624C11.9725 2.40452 15.2105 3.73834 17.6437 5.5565C15.6416 7.57999 14.3216 9.94091 13.7975 12.2752ZM15.7506 45.9087C15.7422 45.9017 15.7361 45.8956 15.7319 45.8911C15.6881 45.8443 15.5827 45.6851 15.5827 45.2227V16.9558C15.5827 16.7219 15.569 16.4882 15.5426 16.2557V14.5086C15.5426 12.0661 16.7951 9.22353 19.1708 6.85874C21.618 9.23995 22.909 12.1263 22.909 14.6002V16.1652C22.8824 16.399 22.8686 16.6338 22.8686 16.8689V45.1913C22.8686 45.6553 22.763 45.8157 22.7187 45.8631C22.6869 45.8971 22.5559 46.0152 22.0872 46.0152H16.3239C15.9906 46.0152 15.8281 45.9555 15.7506 45.9087Z" fill="#EB3850"/>
</svg>
