<svg width="34" height="24" viewBox="0 0 34 24" fill="none" xmlns="http://www.w3.org/2000/svg">
<path d="M0.399902 1.71429C0.399902 0.767512 0.964024 0 1.6599 0H32.7399C33.4358 0 33.9999 0.767512 33.9999 1.71429C33.9999 2.66106 33.4358 3.42857 32.7399 3.42857H1.6599C0.964024 3.42857 0.399902 2.66106 0.399902 1.71429Z" fill="white"/>
<path d="M0.399902 12C0.399902 11.0532 0.964024 10.2857 1.6599 10.2857H32.7399C33.4358 10.2857 33.9999 11.0532 33.9999 12C33.9999 12.9468 33.4358 13.7143 32.7399 13.7143H1.6599C0.964024 13.7143 0.399902 12.9468 0.399902 12Z" fill="white"/>
<path d="M0.399902 22.2857C0.399902 21.3389 0.964024 20.5714 1.6599 20.5714H32.7399C33.4358 20.5714 33.9999 21.3389 33.9999 22.2857C33.9999 23.2325 33.4358 24 32.7399 24H1.6599C0.964024 24 0.399902 23.2325 0.399902 22.2857Z" fill="white"/>
</svg>
