<svg width="32" height="36" viewBox="0 0 32 36" fill="none" xmlns="http://www.w3.org/2000/svg">
<path d="M29.9719 15.8793L3.75006 0.876143C3.36779 0.653224 2.9332 0.535767 2.49068 0.535767C2.04816 0.535767 1.61358 0.653224 1.23131 0.876143C0.854682 1.0921 0.542205 1.40425 0.325862 1.78066C0.109519 2.15706 -0.00291872 2.58419 5.75898e-05 3.01833V33.059C-0.00118183 33.4927 0.112725 33.9189 0.330143 34.2942C0.54756 34.6694 0.860694 34.9803 1.23756 35.1949C1.61983 35.4178 2.05441 35.5353 2.49693 35.5353C2.93945 35.5353 3.37404 35.4178 3.75631 35.1949L29.9719 20.1949C30.3591 19.9827 30.6821 19.6702 30.9071 19.2903C31.1321 18.9104 31.2508 18.477 31.2508 18.0355C31.2508 17.594 31.1321 17.1606 30.9071 16.7807C30.6821 16.4008 30.3591 16.0884 29.9719 15.8761V15.8793ZM17.5001 19.8058L20.4563 22.7621L6.62818 30.6777L17.5001 19.8058ZM6.62506 5.39802L20.4579 13.3152L17.5001 16.2715L6.62506 5.39802ZM22.7047 21.4761L19.2672 18.0386L22.7047 14.6011L28.7094 18.0386L22.7047 21.4761Z" fill="#EB3850"/>
</svg>
